# MagicaVoxel @ Ephtracy

# material
mtllib Pintinho.mtl
usemtl palette

# normals
vn -1 0 0
vn 1 0 0
vn 0 0 1
vn 0 0 -1
vn 0 -1 0
vn 0 1 0

# texcoords
vt 0.0175781 0.5
vt 0.0644531 0.5
vt 0.994141 0.5

# verts
v -4 3 2
v -4 3 -2
v -4 5 2
v -4 5 -2
v -3 2 4
v -3 2 -3
v -3 3 2
v -3 3 -2
v -3 5 2
v -3 5 -2
v -3 6 -1
v -3 6 -3
v -3 9 3
v -3 9 2
v -3 10 3
v -3 10 2
v -3 11 4
v -3 11 -1
v -2 0 4
v -2 0 2
v -2 1 4
v -2 1 3
v -2 2 3
v -2 2 2
v -2 3 -3
v -2 3 -5
v -2 6 -3
v -2 8 -3
v -2 8 -5
v -1 7 5
v -1 7 4
v -1 8 6
v -1 8 5
v -1 9 6
v -1 9 4
v 1 0 4
v 1 0 2
v 1 1 4
v 1 1 3
v 1 2 3
v 1 2 2
v -1 0 4
v -1 0 2
v -1 1 4
v -1 1 3
v -1 2 3
v -1 2 2
v 1 7 5
v 1 7 4
v 1 8 6
v 1 8 5
v 1 9 6
v 1 9 4
v 2 0 4
v 2 0 2
v 2 1 4
v 2 1 3
v 2 2 3
v 2 2 2
v 2 3 -3
v 2 3 -5
v 2 6 -3
v 2 8 -3
v 2 8 -5
v 3 2 4
v 3 2 -3
v 3 3 2
v 3 3 -2
v 3 5 2
v 3 5 -2
v 3 6 -1
v 3 6 -3
v 3 9 3
v 3 9 2
v 3 10 3
v 3 10 2
v 3 11 4
v 3 11 -1
v 4 3 2
v 4 3 -2
v 4 5 2
v 4 5 -2
v -1 8 6
v -1 9 6
v 1 8 6
v 1 9 6
v -1 7 5
v -1 8 5
v 1 7 5
v 1 8 5
v -3 2 4
v -3 11 4
v -2 0 4
v -2 1 4
v -1 0 4
v -1 1 4
v -1 7 4
v -1 9 4
v 1 0 4
v 1 1 4
v 1 7 4
v 1 9 4
v 2 0 4
v 2 1 4
v 3 2 4
v 3 11 4
v -2 1 3
v -2 2 3
v -1 1 3
v -1 2 3
v 1 1 3
v 1 2 3
v 2 1 3
v 2 2 3
v -4 3 2
v -4 5 2
v -3 3 2
v -3 5 2
v 3 3 2
v 3 5 2
v 4 3 2
v 4 5 2
v -2 6 -3
v -2 8 -3
v 2 6 -3
v 2 8 -3
v -2 0 2
v -2 2 2
v -1 0 2
v -1 2 2
v 1 0 2
v 1 2 2
v 2 0 2
v 2 2 2
v -3 6 -1
v -3 11 -1
v 3 6 -1
v 3 11 -1
v -4 3 -2
v -4 5 -2
v -3 3 -2
v -3 5 -2
v 3 3 -2
v 3 5 -2
v 4 3 -2
v 4 5 -2
v -3 2 -3
v -3 6 -3
v -2 3 -3
v -2 6 -3
v 2 3 -3
v 2 6 -3
v 3 2 -3
v 3 6 -3
v -2 3 -5
v -2 8 -5
v 2 3 -5
v 2 8 -5
v -2 0 4
v -1 0 4
v 1 0 4
v 2 0 4
v -2 0 2
v -1 0 2
v 1 0 2
v 2 0 2
v -3 2 4
v 3 2 4
v -2 2 3
v -1 2 3
v 1 2 3
v 2 2 3
v -2 2 2
v -1 2 2
v 1 2 2
v 2 2 2
v -3 2 -3
v 3 2 -3
v -4 3 2
v -3 3 2
v 3 3 2
v 4 3 2
v -4 3 -2
v -3 3 -2
v 3 3 -2
v 4 3 -2
v -2 3 -3
v 2 3 -3
v -2 3 -5
v 2 3 -5
v -1 7 5
v 1 7 5
v -1 7 4
v 1 7 4
v -1 8 6
v 1 8 6
v -1 8 5
v 1 8 5
v -2 1 4
v -1 1 4
v 1 1 4
v 2 1 4
v -2 1 3
v -1 1 3
v 1 1 3
v 2 1 3
v -4 5 2
v -3 5 2
v 3 5 2
v 4 5 2
v -4 5 -2
v -3 5 -2
v 3 5 -2
v 4 5 -2
v -3 6 -1
v 3 6 -1
v -3 6 -3
v -2 6 -3
v 2 6 -3
v 3 6 -3
v -2 8 -3
v 2 8 -3
v -2 8 -5
v 2 8 -5
v -1 9 6
v 1 9 6
v -1 9 4
v 1 9 4
v -3 11 4
v 3 11 4
v -3 11 -1
v 3 11 -1

# faces
f 3/1/1 2/1/1 1/1/1
f 4/1/1 2/1/1 3/1/1
f 7/1/1 6/1/1 5/1/1
f 8/1/1 6/1/1 7/1/1
f 9/1/1 7/1/1 5/1/1
f 10/1/1 6/1/1 8/1/1
f 11/1/1 10/1/1 9/1/1
f 12/1/1 6/1/1 10/1/1
f 12/1/1 10/1/1 11/1/1
f 13/1/1 9/1/1 5/1/1
f 13/1/1 11/1/1 9/1/1
f 14/1/1 11/1/1 13/1/1
f 15/1/1 13/1/1 5/1/1
f 15/3/1 14/3/1 13/3/1
f 16/1/1 11/1/1 14/1/1
f 16/3/1 14/3/1 15/3/1
f 17/1/1 15/1/1 5/1/1
f 17/1/1 16/1/1 15/1/1
f 18/1/1 11/1/1 16/1/1
f 18/1/1 16/1/1 17/1/1
f 21/2/1 20/2/1 19/2/1
f 22/2/1 20/2/1 21/2/1
f 23/2/1 20/2/1 22/2/1
f 24/2/1 20/2/1 23/2/1
f 27/1/1 26/1/1 25/1/1
f 28/1/1 26/1/1 27/1/1
f 29/1/1 26/1/1 28/1/1
f 33/2/1 31/2/1 30/2/1
f 34/2/1 33/2/1 32/2/1
f 35/2/1 31/2/1 33/2/1
f 35/2/1 33/2/1 34/2/1
f 38/2/1 37/2/1 36/2/1
f 39/2/1 37/2/1 38/2/1
f 40/2/1 37/2/1 39/2/1
f 41/2/1 37/2/1 40/2/1
f 42/2/2 43/2/2 44/2/2
f 44/2/2 43/2/2 45/2/2
f 45/2/2 43/2/2 46/2/2
f 46/2/2 43/2/2 47/2/2
f 48/2/2 49/2/2 51/2/2
f 50/2/2 51/2/2 52/2/2
f 51/2/2 49/2/2 53/2/2
f 52/2/2 51/2/2 53/2/2
f 54/2/2 55/2/2 56/2/2
f 56/2/2 55/2/2 57/2/2
f 57/2/2 55/2/2 58/2/2
f 58/2/2 55/2/2 59/2/2
f 60/1/2 61/1/2 62/1/2
f 62/1/2 61/1/2 63/1/2
f 63/1/2 61/1/2 64/1/2
f 65/1/2 66/1/2 67/1/2
f 67/1/2 66/1/2 68/1/2
f 65/1/2 67/1/2 69/1/2
f 68/1/2 66/1/2 70/1/2
f 69/1/2 70/1/2 71/1/2
f 70/1/2 66/1/2 72/1/2
f 71/1/2 70/1/2 72/1/2
f 65/1/2 69/1/2 73/1/2
f 69/1/2 71/1/2 73/1/2
f 73/1/2 71/1/2 74/1/2
f 65/1/2 73/1/2 75/1/2
f 73/3/2 74/3/2 75/3/2
f 74/1/2 71/1/2 76/1/2
f 75/3/2 74/3/2 76/3/2
f 65/1/2 75/1/2 77/1/2
f 75/1/2 76/1/2 77/1/2
f 76/1/2 71/1/2 78/1/2
f 77/1/2 76/1/2 78/1/2
f 79/1/2 80/1/2 81/1/2
f 81/1/2 80/1/2 82/1/2
f 85/2/3 84/2/3 83/2/3
f 86/2/3 84/2/3 85/2/3
f 89/2/3 88/2/3 87/2/3
f 90/2/3 88/2/3 89/2/3
f 95/2/3 94/2/3 93/2/3
f 96/2/3 94/2/3 95/2/3
f 97/1/3 92/1/3 91/1/3
f 98/1/3 92/1/3 97/1/3
f 101/1/3 97/1/3 91/1/3
f 102/1/3 92/1/3 98/1/3
f 103/2/3 100/2/3 99/2/3
f 104/2/3 100/2/3 103/2/3
f 105/1/3 101/1/3 91/1/3
f 105/1/3 102/1/3 101/1/3
f 106/1/3 92/1/3 102/1/3
f 106/1/3 102/1/3 105/1/3
f 109/2/3 108/2/3 107/2/3
f 110/2/3 108/2/3 109/2/3
f 113/2/3 112/2/3 111/2/3
f 114/2/3 112/2/3 113/2/3
f 117/1/3 116/1/3 115/1/3
f 118/1/3 116/1/3 117/1/3
f 121/1/3 120/1/3 119/1/3
f 122/1/3 120/1/3 121/1/3
f 125/1/3 124/1/3 123/1/3
f 126/1/3 124/1/3 125/1/3
f 127/2/4 128/2/4 129/2/4
f 129/2/4 128/2/4 130/2/4
f 131/2/4 132/2/4 133/2/4
f 133/2/4 132/2/4 134/2/4
f 135/1/4 136/1/4 137/1/4
f 137/1/4 136/1/4 138/1/4
f 139/1/4 140/1/4 141/1/4
f 141/1/4 140/1/4 142/1/4
f 143/1/4 144/1/4 145/1/4
f 145/1/4 144/1/4 146/1/4
f 147/1/4 148/1/4 149/1/4
f 149/1/4 148/1/4 150/1/4
f 147/1/4 149/1/4 151/1/4
f 147/1/4 151/1/4 153/1/4
f 151/1/4 152/1/4 153/1/4
f 153/1/4 152/1/4 154/1/4
f 155/1/4 156/1/4 157/1/4
f 157/1/4 156/1/4 158/1/4
f 163/2/5 160/2/5 159/2/5
f 164/2/5 160/2/5 163/2/5
f 165/2/5 162/2/5 161/2/5
f 166/2/5 162/2/5 165/2/5
f 169/1/5 168/1/5 167/1/5
f 170/1/5 168/1/5 169/1/5
f 171/1/5 168/1/5 170/1/5
f 172/1/5 168/1/5 171/1/5
f 173/1/5 169/1/5 167/1/5
f 174/1/5 171/1/5 170/1/5
f 175/1/5 171/1/5 174/1/5
f 176/1/5 168/1/5 172/1/5
f 177/1/5 175/1/5 174/1/5
f 177/1/5 176/1/5 175/1/5
f 177/1/5 173/1/5 167/1/5
f 177/1/5 174/1/5 173/1/5
f 178/1/5 168/1/5 176/1/5
f 178/1/5 176/1/5 177/1/5
f 183/1/5 180/1/5 179/1/5
f 184/1/5 180/1/5 183/1/5
f 185/1/5 182/1/5 181/1/5
f 186/1/5 182/1/5 185/1/5
f 189/1/5 188/1/5 187/1/5
f 190/1/5 188/1/5 189/1/5
f 193/2/5 192/2/5 191/2/5
f 194/2/5 192/2/5 193/2/5
f 197/2/5 196/2/5 195/2/5
f 198/2/5 196/2/5 197/2/5
f 199/2/6 200/2/6 203/2/6
f 203/2/6 200/2/6 204/2/6
f 201/2/6 202/2/6 205/2/6
f 205/2/6 202/2/6 206/2/6
f 207/1/6 208/1/6 211/1/6
f 211/1/6 208/1/6 212/1/6
f 209/1/6 210/1/6 213/1/6
f 213/1/6 210/1/6 214/1/6
f 215/1/6 216/1/6 217/1/6
f 217/1/6 216/1/6 218/1/6
f 218/1/6 216/1/6 219/1/6
f 219/1/6 216/1/6 220/1/6
f 221/1/6 222/1/6 223/1/6
f 223/1/6 222/1/6 224/1/6
f 225/2/6 226/2/6 227/2/6
f 227/2/6 226/2/6 228/2/6
f 229/1/6 230/1/6 231/1/6
f 231/1/6 230/1/6 232/1/6
