# MagicaVoxel @ Ephtracy

# material
mtllib CaminhaoSemBauAzul.mtl
usemtl palette

# normals
vn -1 0 0
vn 1 0 0
vn 0 0 1
vn 0 0 -1
vn 0 -1 0
vn 0 1 0

# texcoords
vt 0.658203 0.5
vt 0.775391 0.5
vt 0.802734 0.5
vt 0.955078 0.5
vt 0.958984 0.5
vt 0.962891 0.5
vt 0.974609 0.5
vt 0.982422 0.5
vt 0.986328 0.5
vt 0.994141 0.5

# verts
v -18 5 7
v -18 5 -7
v -18 8 7
v -18 8 -7
v -17 5 8
v -17 5 7
v -17 5 -7
v -17 5 -8
v -17 7 8
v -17 7 7
v -17 7 -7
v -17 7 -8
v -16 0 9
v -16 0 7
v -16 0 -7
v -16 0 -9
v -16 5 8
v -16 5 7
v -16 5 -7
v -16 5 -8
v -16 6 9
v -16 6 8
v -16 6 -8
v -16 6 -9
v 5 20 6
v 5 20 4
v 5 20 -4
v 5 20 -6
v 5 21 6
v 5 21 4
v 5 21 -4
v 5 21 -6
v 6 0 10
v 6 0 8
v 6 0 -8
v 6 0 -10
v 6 6 10
v 6 6 8
v 6 6 7
v 6 6 -7
v 6 6 -8
v 6 6 -10
v 6 7 6
v 6 7 4
v 6 7 -4
v 6 7 -6
v 6 8 7
v 6 8 6
v 6 8 -6
v 6 8 -7
v 6 9 8
v 6 9 6
v 6 9 -6
v 6 9 -8
v 6 20 6
v 6 20 4
v 6 20 -4
v 6 20 -6
v 7 5 8
v 7 5 7
v 7 5 -7
v 7 5 -8
v 7 6 8
v 7 6 7
v 7 6 -7
v 7 6 -8
v 7 7 4
v 7 7 -4
v 7 9 8
v 7 9 6
v 7 9 -6
v 7 9 -8
v 7 18 8
v 7 18 6
v 7 18 4
v 7 18 -4
v 7 18 -6
v 7 18 -8
v 8 18 7
v 8 18 -7
v 8 21 7
v 8 21 -7
v 11 14 8
v 11 14 7
v 11 14 -7
v 11 14 -8
v 11 17 8
v 11 17 7
v 11 17 -7
v 11 17 -8
v 16 11 8
v 16 11 7
v 16 11 -7
v 16 11 -8
v 16 17 8
v 16 17 7
v 16 17 -7
v 16 17 -8
v 17 13 9
v 17 13 8
v 17 13 -8
v 17 13 -9
v 17 14 10
v 17 14 9
v 17 14 -9
v 17 14 -10
v 17 17 10
v 17 17 8
v 17 17 -8
v 17 17 -10
v -17 7 6
v -17 7 -6
v -17 8 6
v -17 8 -6
v -10 0 9
v -10 0 7
v -10 0 -7
v -10 0 -9
v -10 5 8
v -10 5 7
v -10 5 -7
v -10 5 -8
v -10 6 9
v -10 6 8
v -10 6 -8
v -10 6 -9
v -9 5 8
v -9 5 7
v -9 5 -7
v -9 5 -8
v -9 7 8
v -9 7 7
v -9 7 -7
v -9 7 -8
v 7 18 6
v 7 18 4
v 7 18 -4
v 7 18 -6
v 7 21 6
v 7 21 4
v 7 21 -4
v 7 21 -6
v 8 14 8
v 8 14 7
v 8 14 -7
v 8 14 -8
v 8 17 8
v 8 17 7
v 8 17 -7
v 8 17 -8
v 12 0 10
v 12 0 8
v 12 0 -8
v 12 0 -10
v 12 5 9
v 12 5 8
v 12 5 -8
v 12 5 -9
v 12 6 10
v 12 6 9
v 12 6 -9
v 12 6 -10
v 12 11 8
v 12 11 7
v 12 11 -7
v 12 11 -8
v 12 17 8
v 12 17 7
v 12 17 -7
v 12 17 -8
v 12 18 7
v 12 18 -7
v 12 21 7
v 12 21 -7
v 15 5 9
v 15 5 8
v 15 5 -8
v 15 5 -9
v 15 6 9
v 15 6 8
v 15 6 -8
v 15 6 -9
v 17 12 7
v 17 12 -7
v 17 17 7
v 17 17 -7
v 18 5 8
v 18 5 -8
v 18 6 7
v 18 6 -7
v 18 7 6
v 18 7 1
v 18 7 -1
v 18 7 -6
v 18 9 6
v 18 9 1
v 18 9 -1
v 18 9 -6
v 18 10 7
v 18 10 -7
v 18 12 7
v 18 12 -7
v 18 13 9
v 18 13 8
v 18 13 -8
v 18 13 -9
v 18 14 10
v 18 14 9
v 18 14 -9
v 18 14 -10
v 18 17 10
v 18 17 8
v 18 17 7
v 18 17 -7
v 18 17 -8
v 18 17 -10
v 18 18 8
v 18 18 -8
v 19 6 7
v 19 6 -7
v 19 7 6
v 19 7 1
v 19 7 -1
v 19 7 -6
v 19 9 6
v 19 9 1
v 19 9 -1
v 19 9 -6
v 19 10 7
v 19 10 -7
v 6 0 10
v 6 6 10
v 8 2 10
v 8 4 10
v 10 2 10
v 10 4 10
v 12 0 10
v 12 6 10
v 17 14 10
v 17 17 10
v 18 14 10
v 18 17 10
v -16 0 9
v -16 6 9
v -14 2 9
v -14 4 9
v -12 2 9
v -12 4 9
v -10 0 9
v -10 6 9
v 12 5 9
v 12 6 9
v 15 5 9
v 15 6 9
v 17 13 9
v 17 14 9
v 18 13 9
v 18 14 9
v -17 5 8
v -17 7 8
v -16 5 8
v -16 6 8
v -10 5 8
v -10 6 8
v -9 5 8
v -9 7 8
v 6 6 8
v 6 9 8
v 7 9 8
v 7 18 8
v 8 14 8
v 8 17 8
v 11 14 8
v 11 17 8
v 12 6 8
v 12 9 8
v 12 10 8
v 12 11 8
v 12 17 8
v 14 9 8
v 14 10 8
v 15 5 8
v 15 6 8
v 16 11 8
v 16 17 8
v 17 13 8
v 17 17 8
v 18 5 8
v 18 13 8
v 18 17 8
v 18 18 8
v -18 5 7
v -18 8 7
v -17 5 7
v -17 7 7
v -9 5 7
v -9 7 7
v 6 6 7
v 6 8 7
v 7 5 7
v 7 6 7
v 8 14 7
v 8 17 7
v 8 18 7
v 8 21 7
v 11 14 7
v 11 17 7
v 12 11 7
v 12 17 7
v 12 18 7
v 12 21 7
v 16 11 7
v 16 17 7
v 18 6 7
v 18 10 7
v 19 6 7
v 19 10 7
v 5 20 6
v 5 21 6
v 6 9 6
v 6 20 6
v 7 9 6
v 7 18 6
v 7 21 6
v 18 7 1
v 18 9 1
v 19 7 1
v 19 9 1
v 5 20 -4
v 5 21 -4
v 6 7 -4
v 6 20 -4
v 7 7 -4
v 7 18 -4
v 7 21 -4
v -17 7 -6
v -17 8 -6
v 6 7 -6
v 6 8 -6
v 18 7 -6
v 18 9 -6
v 19 7 -6
v 19 9 -6
v -16 0 -7
v -16 5 -7
v -14 2 -7
v -14 4 -7
v -12 2 -7
v -12 4 -7
v -10 0 -7
v -10 5 -7
v 17 12 -7
v 17 17 -7
v 18 12 -7
v 18 17 -7
v 6 0 -8
v 6 6 -8
v 7 5 -8
v 7 6 -8
v 8 2 -8
v 8 4 -8
v 10 2 -8
v 10 4 -8
v 12 0 -8
v 12 5 -8
v 6 0 8
v 6 6 8
v 7 5 8
v 7 6 8
v 8 2 8
v 8 4 8
v 10 2 8
v 10 4 8
v 12 0 8
v 12 5 8
v -16 0 7
v -16 5 7
v -14 2 7
v -14 4 7
v -12 2 7
v -12 4 7
v -10 0 7
v -10 5 7
v 17 12 7
v 17 17 7
v 18 12 7
v 18 17 7
v -17 7 6
v -17 8 6
v 6 7 6
v 6 8 6
v 18 7 6
v 18 9 6
v 19 7 6
v 19 9 6
v 5 20 4
v 5 21 4
v 6 7 4
v 6 20 4
v 7 7 4
v 7 18 4
v 7 21 4
v 18 7 -1
v 18 9 -1
v 19 7 -1
v 19 9 -1
v 5 20 -6
v 5 21 -6
v 6 9 -6
v 6 20 -6
v 7 9 -6
v 7 18 -6
v 7 21 -6
v -18 5 -7
v -18 8 -7
v -17 5 -7
v -17 7 -7
v -9 5 -7
v -9 7 -7
v 6 6 -7
v 6 8 -7
v 7 5 -7
v 7 6 -7
v 8 14 -7
v 8 17 -7
v 8 18 -7
v 8 21 -7
v 11 14 -7
v 11 17 -7
v 12 11 -7
v 12 17 -7
v 12 18 -7
v 12 21 -7
v 16 11 -7
v 16 17 -7
v 18 6 -7
v 18 10 -7
v 19 6 -7
v 19 10 -7
v -17 5 -8
v -17 7 -8
v -16 5 -8
v -16 6 -8
v -10 5 -8
v -10 6 -8
v -9 5 -8
v -9 7 -8
v 6 6 -8
v 6 9 -8
v 7 9 -8
v 7 18 -8
v 8 14 -8
v 8 17 -8
v 11 14 -8
v 11 17 -8
v 12 6 -8
v 12 9 -8
v 12 10 -8
v 12 11 -8
v 12 17 -8
v 14 9 -8
v 14 10 -8
v 15 5 -8
v 15 6 -8
v 16 11 -8
v 16 17 -8
v 17 13 -8
v 17 17 -8
v 18 5 -8
v 18 13 -8
v 18 17 -8
v 18 18 -8
v -16 0 -9
v -16 6 -9
v -14 2 -9
v -14 4 -9
v -12 2 -9
v -12 4 -9
v -10 0 -9
v -10 6 -9
v 12 5 -9
v 12 6 -9
v 15 5 -9
v 15 6 -9
v 17 13 -9
v 17 14 -9
v 18 13 -9
v 18 14 -9
v 6 0 -10
v 6 6 -10
v 8 2 -10
v 8 4 -10
v 10 2 -10
v 10 4 -10
v 12 0 -10
v 12 6 -10
v 17 14 -10
v 17 17 -10
v 18 14 -10
v 18 17 -10
v 6 0 10
v 12 0 10
v -16 0 9
v -10 0 9
v 6 0 8
v 12 0 8
v -16 0 7
v -10 0 7
v -16 0 -7
v -10 0 -7
v 6 0 -8
v 12 0 -8
v -16 0 -9
v -10 0 -9
v 6 0 -10
v 12 0 -10
v 12 5 9
v 15 5 9
v -17 5 8
v -16 5 8
v -10 5 8
v -9 5 8
v 7 5 8
v 12 5 8
v 15 5 8
v 18 5 8
v -18 5 7
v -17 5 7
v -16 5 7
v -10 5 7
v -9 5 7
v 7 5 7
v -18 5 -7
v -17 5 -7
v -16 5 -7
v -10 5 -7
v -9 5 -7
v 7 5 -7
v -17 5 -8
v -16 5 -8
v -10 5 -8
v -9 5 -8
v 7 5 -8
v 12 5 -8
v 15 5 -8
v 18 5 -8
v 12 5 -9
v 15 5 -9
v 6 6 8
v 7 6 8
v 6 6 7
v 7 6 7
v 18 6 7
v 19 6 7
v 6 6 -7
v 7 6 -7
v 18 6 -7
v 19 6 -7
v 6 6 -8
v 7 6 -8
v 18 9 6
v 19 9 6
v 18 9 1
v 19 9 1
v 18 9 -1
v 19 9 -1
v 18 9 -6
v 19 9 -6
v 17 13 9
v 18 13 9
v 17 13 8
v 18 13 8
v 17 13 -8
v 18 13 -8
v 17 13 -9
v 18 13 -9
v 17 14 10
v 18 14 10
v 17 14 9
v 18 14 9
v 17 14 -9
v 18 14 -9
v 17 14 -10
v 18 14 -10
v 8 17 8
v 11 17 8
v 12 17 8
v 16 17 8
v 8 17 7
v 11 17 7
v 12 17 7
v 16 17 7
v 17 17 7
v 18 17 7
v 8 17 -7
v 11 17 -7
v 12 17 -7
v 16 17 -7
v 17 17 -7
v 18 17 -7
v 8 17 -8
v 11 17 -8
v 12 17 -8
v 16 17 -8
v 5 20 6
v 6 20 6
v 5 20 4
v 6 20 4
v 5 20 -4
v 6 20 -4
v 5 20 -6
v 6 20 -6
v 6 6 10
v 12 6 10
v -16 6 9
v -10 6 9
v 12 6 9
v 15 6 9
v -16 6 8
v -10 6 8
v 6 6 8
v 12 6 8
v 15 6 8
v -16 6 -8
v -10 6 -8
v 6 6 -8
v 12 6 -8
v 15 6 -8
v -16 6 -9
v -10 6 -9
v 12 6 -9
v 15 6 -9
v 6 6 -10
v 12 6 -10
v -17 7 8
v -9 7 8
v -17 7 7
v -9 7 7
v -17 7 6
v 6 7 6
v 18 7 6
v 19 7 6
v 6 7 4
v 7 7 4
v 18 7 1
v 19 7 1
v 18 7 -1
v 19 7 -1
v 6 7 -4
v 7 7 -4
v -17 7 -6
v 6 7 -6
v 18 7 -6
v 19 7 -6
v -17 7 -7
v -9 7 -7
v -17 7 -8
v -9 7 -8
v -18 8 7
v 6 8 7
v -17 8 6
v 6 8 6
v -17 8 -6
v 6 8 -6
v -18 8 -7
v 6 8 -7
v 6 9 8
v 7 9 8
v 6 9 6
v 7 9 6
v 6 9 -6
v 7 9 -6
v 6 9 -8
v 7 9 -8
v 18 10 7
v 19 10 7
v 18 10 -7
v 19 10 -7
v 12 11 8
v 16 11 8
v 12 11 7
v 16 11 7
v 12 11 -7
v 16 11 -7
v 12 11 -8
v 16 11 -8
v 17 12 7
v 18 12 7
v 17 12 -7
v 18 12 -7
v 8 14 8
v 11 14 8
v 8 14 7
v 11 14 7
v 8 14 -7
v 11 14 -7
v 8 14 -8
v 11 14 -8
v 17 17 10
v 18 17 10
v 17 17 8
v 18 17 8
v 17 17 -8
v 18 17 -8
v 17 17 -10
v 18 17 -10
v 7 18 8
v 18 18 8
v 8 18 7
v 12 18 7
v 7 18 6
v 7 18 4
v 7 18 -4
v 7 18 -6
v 8 18 -7
v 12 18 -7
v 7 18 -8
v 18 18 -8
v 8 21 7
v 12 21 7
v 5 21 6
v 7 21 6
v 5 21 4
v 7 21 4
v 5 21 -4
v 7 21 -4
v 5 21 -6
v 7 21 -6
v 8 21 -7
v 12 21 -7

# faces
f 3/7/1 2/7/1 1/7/1
f 4/7/1 2/7/1 3/7/1
f 9/7/1 6/7/1 5/7/1
f 10/7/1 6/7/1 9/7/1
f 11/7/1 8/7/1 7/7/1
f 12/7/1 8/7/1 11/7/1
f 17/10/1 14/10/1 13/10/1
f 18/10/1 14/10/1 17/10/1
f 19/10/1 16/10/1 15/10/1
f 20/10/1 16/10/1 19/10/1
f 21/10/1 17/10/1 13/10/1
f 22/10/1 17/10/1 21/10/1
f 23/10/1 16/10/1 20/10/1
f 24/10/1 16/10/1 23/10/1
f 29/8/1 26/8/1 25/8/1
f 30/8/1 26/8/1 29/8/1
f 31/8/1 28/8/1 27/8/1
f 32/8/1 28/8/1 31/8/1
f 37/10/1 34/10/1 33/10/1
f 38/10/1 34/10/1 37/10/1
f 41/10/1 36/10/1 35/10/1
f 42/10/1 36/10/1 41/10/1
f 47/2/1 39/2/1 38/2/1
f 48/8/1 44/8/1 43/8/1
f 49/8/1 46/8/1 45/8/1
f 50/2/1 41/2/1 40/2/1
f 51/2/1 48/2/1 47/2/1
f 51/2/1 47/2/1 38/2/1
f 52/8/1 44/8/1 48/8/1
f 52/2/1 48/2/1 51/2/1
f 53/2/1 50/2/1 49/2/1
f 53/8/1 49/8/1 45/8/1
f 54/2/1 41/2/1 50/2/1
f 54/2/1 50/2/1 53/2/1
f 55/8/1 44/8/1 52/8/1
f 56/8/1 44/8/1 55/8/1
f 57/8/1 53/8/1 45/8/1
f 58/8/1 53/8/1 57/8/1
f 63/2/1 60/2/1 59/2/1
f 64/2/1 60/2/1 63/2/1
f 65/2/1 62/2/1 61/2/1
f 66/2/1 62/2/1 65/2/1
f 73/2/1 70/2/1 69/2/1
f 74/2/1 70/2/1 73/2/1
f 75/2/1 68/2/1 67/2/1
f 76/2/1 68/2/1 75/2/1
f 77/2/1 72/2/1 71/2/1
f 78/2/1 72/2/1 77/2/1
f 81/5/1 80/5/1 79/5/1
f 82/5/1 80/5/1 81/5/1
f 87/2/1 84/2/1 83/2/1
f 88/2/1 84/2/1 87/2/1
f 89/2/1 86/2/1 85/2/1
f 90/2/1 86/2/1 89/2/1
f 95/2/1 92/2/1 91/2/1
f 96/2/1 92/2/1 95/2/1
f 97/2/1 94/2/1 93/2/1
f 98/2/1 94/2/1 97/2/1
f 104/9/1 100/9/1 99/9/1
f 105/9/1 102/9/1 101/9/1
f 107/9/1 104/9/1 103/9/1
f 108/9/1 100/9/1 104/9/1
f 108/9/1 104/9/1 107/9/1
f 109/9/1 106/9/1 105/9/1
f 109/9/1 105/9/1 101/9/1
f 110/9/1 106/9/1 109/9/1
f 111/7/2 112/7/2 113/7/2
f 113/7/2 112/7/2 114/7/2
f 115/10/2 116/10/2 119/10/2
f 119/10/2 116/10/2 120/10/2
f 117/10/2 118/10/2 121/10/2
f 121/10/2 118/10/2 122/10/2
f 115/10/2 119/10/2 123/10/2
f 123/10/2 119/10/2 124/10/2
f 122/10/2 118/10/2 125/10/2
f 125/10/2 118/10/2 126/10/2
f 127/7/2 128/7/2 131/7/2
f 131/7/2 128/7/2 132/7/2
f 129/7/2 130/7/2 133/7/2
f 133/7/2 130/7/2 134/7/2
f 135/8/2 136/8/2 139/8/2
f 139/8/2 136/8/2 140/8/2
f 137/8/2 138/8/2 141/8/2
f 141/8/2 138/8/2 142/8/2
f 143/2/2 144/2/2 147/2/2
f 147/2/2 144/2/2 148/2/2
f 145/2/2 146/2/2 149/2/2
f 149/2/2 146/2/2 150/2/2
f 151/10/2 152/10/2 155/10/2
f 155/10/2 152/10/2 156/10/2
f 153/10/2 154/10/2 157/10/2
f 157/10/2 154/10/2 158/10/2
f 151/10/2 155/10/2 159/10/2
f 159/10/2 155/10/2 160/10/2
f 158/10/2 154/10/2 161/10/2
f 161/10/2 154/10/2 162/10/2
f 163/2/2 164/2/2 167/2/2
f 167/2/2 164/2/2 168/2/2
f 165/2/2 166/2/2 169/2/2
f 169/2/2 166/2/2 170/2/2
f 171/5/2 172/5/2 173/5/2
f 173/5/2 172/5/2 174/5/2
f 175/6/2 176/6/2 179/6/2
f 179/6/2 176/6/2 180/6/2
f 177/6/2 178/6/2 181/6/2
f 181/6/2 178/6/2 182/6/2
f 183/4/2 184/4/2 185/4/2
f 185/4/2 184/4/2 186/4/2
f 187/2/2 188/2/2 189/2/2
f 189/2/2 188/2/2 190/2/2
f 191/5/2 192/5/2 195/5/2
f 195/5/2 192/5/2 196/5/2
f 193/5/2 194/5/2 197/5/2
f 197/5/2 194/5/2 198/5/2
f 187/2/2 189/2/2 199/2/2
f 190/2/2 188/2/2 200/2/2
f 187/2/2 199/2/2 201/2/2
f 199/2/2 200/2/2 201/2/2
f 200/2/2 188/2/2 202/2/2
f 201/2/2 200/2/2 202/2/2
f 187/2/2 201/2/2 204/2/2
f 202/2/2 188/2/2 205/2/2
f 203/9/2 204/9/2 208/9/2
f 205/9/2 206/9/2 209/9/2
f 207/9/2 208/9/2 211/9/2
f 204/2/2 201/2/2 212/2/2
f 211/9/2 208/9/2 212/9/2
f 208/9/2 204/9/2 212/9/2
f 212/2/2 201/2/2 213/2/2
f 202/2/2 205/2/2 214/2/2
f 209/9/2 210/9/2 215/9/2
f 205/9/2 209/9/2 215/9/2
f 214/2/2 205/2/2 215/2/2
f 215/9/2 210/9/2 216/9/2
f 213/2/2 214/2/2 217/2/2
f 212/2/2 213/2/2 217/2/2
f 214/2/2 215/2/2 217/2/2
f 217/2/2 215/2/2 218/2/2
f 219/3/2 220/3/2 221/3/2
f 221/3/2 220/3/2 222/3/2
f 222/3/2 220/3/2 223/3/2
f 223/3/2 220/3/2 224/3/2
f 219/3/2 221/3/2 225/3/2
f 222/3/2 223/3/2 226/3/2
f 226/3/2 223/3/2 227/3/2
f 224/3/2 220/3/2 228/3/2
f 226/3/2 227/3/2 229/3/2
f 227/3/2 228/3/2 229/3/2
f 219/3/2 225/3/2 229/3/2
f 225/3/2 226/3/2 229/3/2
f 228/3/2 220/3/2 230/3/2
f 229/3/2 228/3/2 230/3/2
f 233/10/3 232/10/3 231/10/3
f 234/10/3 232/10/3 233/10/3
f 235/10/3 233/10/3 231/10/3
f 235/5/3 234/5/3 233/5/3
f 236/10/3 232/10/3 234/10/3
f 236/5/3 234/5/3 235/5/3
f 237/10/3 235/10/3 231/10/3
f 237/10/3 236/10/3 235/10/3
f 238/10/3 232/10/3 236/10/3
f 238/10/3 236/10/3 237/10/3
f 241/9/3 240/9/3 239/9/3
f 242/9/3 240/9/3 241/9/3
f 245/10/3 244/10/3 243/10/3
f 246/10/3 244/10/3 245/10/3
f 247/10/3 245/10/3 243/10/3
f 247/5/3 246/5/3 245/5/3
f 248/10/3 244/10/3 246/10/3
f 248/5/3 246/5/3 247/5/3
f 249/10/3 247/10/3 243/10/3
f 249/10/3 248/10/3 247/10/3
f 250/10/3 244/10/3 248/10/3
f 250/10/3 248/10/3 249/10/3
f 253/6/3 252/6/3 251/6/3
f 254/6/3 252/6/3 253/6/3
f 257/9/3 256/9/3 255/9/3
f 258/9/3 256/9/3 257/9/3
f 261/7/3 260/7/3 259/7/3
f 262/7/3 260/7/3 261/7/3
f 264/7/3 260/7/3 262/7/3
f 265/7/3 264/7/3 263/7/3
f 266/7/3 260/7/3 264/7/3
f 266/7/3 264/7/3 265/7/3
f 269/2/3 268/2/3 267/2/3
f 271/2/3 270/2/3 269/2/3
f 272/2/3 270/2/3 271/2/3
f 273/2/3 271/2/3 269/2/3
f 274/2/3 270/2/3 272/2/3
f 275/2/3 269/2/3 267/2/3
f 275/2/3 274/2/3 273/2/3
f 275/2/3 273/2/3 269/2/3
f 276/2/3 274/2/3 275/2/3
f 277/2/3 274/2/3 276/2/3
f 278/2/3 274/2/3 277/2/3
f 279/2/3 270/2/3 274/2/3
f 279/2/3 274/2/3 278/2/3
f 280/2/3 276/2/3 275/2/3
f 280/6/3 277/6/3 276/6/3
f 281/2/3 278/2/3 277/2/3
f 281/6/3 277/6/3 280/6/3
f 283/2/3 280/2/3 275/2/3
f 283/2/3 281/2/3 280/2/3
f 284/2/3 278/2/3 281/2/3
f 284/2/3 283/2/3 282/2/3
f 284/2/3 281/2/3 283/2/3
f 285/2/3 270/2/3 279/2/3
f 286/2/3 285/2/3 284/2/3
f 287/2/3 270/2/3 285/2/3
f 287/2/3 285/2/3 286/2/3
f 288/2/3 284/2/3 282/2/3
f 288/2/3 286/2/3 284/2/3
f 289/2/3 286/2/3 288/2/3
f 290/2/3 270/2/3 287/2/3
f 291/2/3 270/2/3 290/2/3
f 294/7/3 293/7/3 292/7/3
f 295/7/3 293/7/3 294/7/3
f 297/7/3 293/7/3 295/7/3
f 298/7/3 297/7/3 296/7/3
f 299/7/3 293/7/3 297/7/3
f 299/7/3 297/7/3 298/7/3
f 300/7/3 298/7/3 296/7/3
f 301/7/3 298/7/3 300/7/3
f 306/10/3 303/10/3 302/10/3
f 307/10/3 303/10/3 306/10/3
f 310/5/3 305/5/3 304/5/3
f 311/5/3 305/5/3 310/5/3
f 312/10/3 309/10/3 308/10/3
f 313/10/3 309/10/3 312/10/3
f 316/3/3 315/3/3 314/3/3
f 317/3/3 315/3/3 316/3/3
f 321/8/3 319/8/3 318/8/3
f 322/8/3 321/8/3 320/8/3
f 323/8/3 321/8/3 322/8/3
f 324/8/3 319/8/3 321/8/3
f 324/8/3 321/8/3 323/8/3
f 327/3/3 326/3/3 325/3/3
f 328/3/3 326/3/3 327/3/3
f 332/8/3 330/8/3 329/8/3
f 333/8/3 332/8/3 331/8/3
f 334/8/3 332/8/3 333/8/3
f 335/8/3 330/8/3 332/8/3
f 335/8/3 332/8/3 334/8/3
f 338/7/3 337/7/3 336/7/3
f 339/7/3 337/7/3 338/7/3
f 342/3/3 341/3/3 340/3/3
f 343/3/3 341/3/3 342/3/3
f 346/10/3 345/10/3 344/10/3
f 347/10/3 345/10/3 346/10/3
f 348/10/3 346/10/3 344/10/3
f 348/5/3 347/5/3 346/5/3
f 349/10/3 345/10/3 347/10/3
f 349/5/3 347/5/3 348/5/3
f 350/10/3 348/10/3 344/10/3
f 350/10/3 349/10/3 348/10/3
f 351/10/3 345/10/3 349/10/3
f 351/10/3 349/10/3 350/10/3
f 354/2/3 353/2/3 352/2/3
f 355/2/3 353/2/3 354/2/3
f 358/10/3 357/10/3 356/10/3
f 359/10/3 357/10/3 358/10/3
f 360/10/3 358/10/3 356/10/3
f 361/10/3 358/10/3 360/10/3
f 362/10/3 360/10/3 356/10/3
f 362/5/3 361/5/3 360/5/3
f 363/10/3 358/10/3 361/10/3
f 363/5/3 361/5/3 362/5/3
f 364/10/3 362/10/3 356/10/3
f 364/10/3 363/10/3 362/10/3
f 365/10/3 358/10/3 363/10/3
f 365/10/3 363/10/3 364/10/3
f 366/10/4 367/10/4 368/10/4
f 368/10/4 367/10/4 369/10/4
f 366/10/4 368/10/4 370/10/4
f 370/10/4 368/10/4 371/10/4
f 366/10/4 370/10/4 372/10/4
f 370/5/4 371/5/4 372/5/4
f 371/10/4 368/10/4 373/10/4
f 372/5/4 371/5/4 373/5/4
f 366/10/4 372/10/4 374/10/4
f 372/10/4 373/10/4 374/10/4
f 373/10/4 368/10/4 375/10/4
f 374/10/4 373/10/4 375/10/4
f 376/10/4 377/10/4 378/10/4
f 378/10/4 377/10/4 379/10/4
f 376/10/4 378/10/4 380/10/4
f 378/5/4 379/5/4 380/5/4
f 379/10/4 377/10/4 381/10/4
f 380/5/4 379/5/4 381/5/4
f 376/10/4 380/10/4 382/10/4
f 380/10/4 381/10/4 382/10/4
f 381/10/4 377/10/4 383/10/4
f 382/10/4 381/10/4 383/10/4
f 384/2/4 385/2/4 386/2/4
f 386/2/4 385/2/4 387/2/4
f 388/7/4 389/7/4 390/7/4
f 390/7/4 389/7/4 391/7/4
f 392/3/4 393/3/4 394/3/4
f 394/3/4 393/3/4 395/3/4
f 396/8/4 397/8/4 399/8/4
f 398/8/4 399/8/4 400/8/4
f 400/8/4 399/8/4 401/8/4
f 399/8/4 397/8/4 402/8/4
f 401/8/4 399/8/4 402/8/4
f 403/3/4 404/3/4 405/3/4
f 405/3/4 404/3/4 406/3/4
f 407/8/4 408/8/4 410/8/4
f 409/8/4 410/8/4 411/8/4
f 411/8/4 410/8/4 412/8/4
f 410/8/4 408/8/4 413/8/4
f 412/8/4 410/8/4 413/8/4
f 414/7/4 415/7/4 416/7/4
f 416/7/4 415/7/4 417/7/4
f 417/7/4 415/7/4 419/7/4
f 418/7/4 419/7/4 420/7/4
f 419/7/4 415/7/4 421/7/4
f 420/7/4 419/7/4 421/7/4
f 418/7/4 420/7/4 422/7/4
f 422/7/4 420/7/4 423/7/4
f 424/10/4 425/10/4 428/10/4
f 428/10/4 425/10/4 429/10/4
f 426/5/4 427/5/4 432/5/4
f 432/5/4 427/5/4 433/5/4
f 430/10/4 431/10/4 434/10/4
f 434/10/4 431/10/4 435/10/4
f 436/3/4 437/3/4 438/3/4
f 438/3/4 437/3/4 439/3/4
f 440/7/4 441/7/4 442/7/4
f 442/7/4 441/7/4 443/7/4
f 443/7/4 441/7/4 445/7/4
f 444/7/4 445/7/4 446/7/4
f 445/7/4 441/7/4 447/7/4
f 446/7/4 445/7/4 447/7/4
f 448/2/4 449/2/4 450/2/4
f 450/2/4 451/2/4 452/2/4
f 452/2/4 451/2/4 453/2/4
f 450/2/4 452/2/4 454/2/4
f 453/2/4 451/2/4 455/2/4
f 448/2/4 450/2/4 456/2/4
f 454/2/4 455/2/4 456/2/4
f 450/2/4 454/2/4 456/2/4
f 456/2/4 455/2/4 457/2/4
f 457/2/4 455/2/4 458/2/4
f 458/2/4 455/2/4 459/2/4
f 455/2/4 451/2/4 460/2/4
f 459/2/4 455/2/4 460/2/4
f 456/2/4 457/2/4 461/2/4
f 457/6/4 458/6/4 461/6/4
f 458/2/4 459/2/4 462/2/4
f 461/6/4 458/6/4 462/6/4
f 456/2/4 461/2/4 464/2/4
f 461/2/4 462/2/4 464/2/4
f 462/2/4 459/2/4 465/2/4
f 463/2/4 464/2/4 465/2/4
f 464/2/4 462/2/4 465/2/4
f 460/2/4 451/2/4 466/2/4
f 465/2/4 466/2/4 467/2/4
f 466/2/4 451/2/4 468/2/4
f 467/2/4 466/2/4 468/2/4
f 463/2/4 465/2/4 469/2/4
f 465/2/4 467/2/4 469/2/4
f 469/2/4 467/2/4 470/2/4
f 468/2/4 451/2/4 471/2/4
f 471/2/4 451/2/4 472/2/4
f 473/10/4 474/10/4 475/10/4
f 475/10/4 474/10/4 476/10/4
f 473/10/4 475/10/4 477/10/4
f 475/5/4 476/5/4 477/5/4
f 476/10/4 474/10/4 478/10/4
f 477/5/4 476/5/4 478/5/4
f 473/10/4 477/10/4 479/10/4
f 477/10/4 478/10/4 479/10/4
f 478/10/4 474/10/4 480/10/4
f 479/10/4 478/10/4 480/10/4
f 481/6/4 482/6/4 483/6/4
f 483/6/4 482/6/4 484/6/4
f 485/9/4 486/9/4 487/9/4
f 487/9/4 486/9/4 488/9/4
f 489/10/4 490/10/4 491/10/4
f 491/10/4 490/10/4 492/10/4
f 489/10/4 491/10/4 493/10/4
f 491/5/4 492/5/4 493/5/4
f 492/10/4 490/10/4 494/10/4
f 493/5/4 492/5/4 494/5/4
f 489/10/4 493/10/4 495/10/4
f 493/10/4 494/10/4 495/10/4
f 494/10/4 490/10/4 496/10/4
f 495/10/4 494/10/4 496/10/4
f 497/9/4 498/9/4 499/9/4
f 499/9/4 498/9/4 500/9/4
f 505/10/5 502/10/5 501/10/5
f 506/10/5 502/10/5 505/10/5
f 507/10/5 504/10/5 503/10/5
f 508/10/5 504/10/5 507/10/5
f 513/10/5 510/10/5 509/10/5
f 514/10/5 510/10/5 513/10/5
f 515/10/5 512/10/5 511/10/5
f 516/10/5 512/10/5 515/10/5
f 524/6/5 518/6/5 517/6/5
f 525/6/5 518/6/5 524/6/5
f 528/7/5 520/7/5 519/7/5
f 529/7/5 520/7/5 528/7/5
f 530/7/5 522/7/5 521/7/5
f 531/7/5 522/7/5 530/7/5
f 532/2/5 526/2/5 525/2/5
f 532/2/5 524/2/5 523/2/5
f 532/2/5 525/2/5 524/2/5
f 533/7/5 529/7/5 528/7/5
f 533/7/5 532/7/5 531/7/5
f 533/7/5 531/7/5 530/7/5
f 533/7/5 530/7/5 529/7/5
f 533/7/5 528/7/5 527/7/5
f 534/7/5 532/7/5 533/7/5
f 535/7/5 532/7/5 534/7/5
f 536/7/5 532/7/5 535/7/5
f 537/7/5 532/7/5 536/7/5
f 538/2/5 526/2/5 532/2/5
f 538/7/5 532/7/5 537/7/5
f 539/7/5 535/7/5 534/7/5
f 540/7/5 535/7/5 539/7/5
f 541/7/5 537/7/5 536/7/5
f 542/7/5 537/7/5 541/7/5
f 543/2/5 526/2/5 538/2/5
f 544/2/5 526/2/5 543/2/5
f 545/2/5 526/2/5 544/2/5
f 546/2/5 526/2/5 545/2/5
f 547/6/5 545/6/5 544/6/5
f 548/6/5 545/6/5 547/6/5
f 551/2/5 550/2/5 549/2/5
f 552/2/5 550/2/5 551/2/5
f 557/3/5 554/3/5 553/3/5
f 558/3/5 554/3/5 557/3/5
f 559/2/5 556/2/5 555/2/5
f 560/2/5 556/2/5 559/2/5
f 563/3/5 562/3/5 561/3/5
f 564/3/5 562/3/5 563/3/5
f 567/3/5 566/3/5 565/3/5
f 568/3/5 566/3/5 567/3/5
f 571/9/5 570/9/5 569/9/5
f 572/9/5 570/9/5 571/9/5
f 575/9/5 574/9/5 573/9/5
f 576/9/5 574/9/5 575/9/5
f 579/9/5 578/9/5 577/9/5
f 580/9/5 578/9/5 579/9/5
f 583/9/5 582/9/5 581/9/5
f 584/9/5 582/9/5 583/9/5
f 589/2/5 586/2/5 585/2/5
f 590/2/5 586/2/5 589/2/5
f 591/2/5 588/2/5 587/2/5
f 592/2/5 588/2/5 591/2/5
f 599/2/5 594/2/5 593/2/5
f 600/2/5 594/2/5 599/2/5
f 601/2/5 596/2/5 595/2/5
f 602/2/5 596/2/5 601/2/5
f 603/2/5 598/2/5 597/2/5
f 604/2/5 598/2/5 603/2/5
f 607/8/5 606/8/5 605/8/5
f 608/8/5 606/8/5 607/8/5
f 611/8/5 610/8/5 609/8/5
f 612/8/5 610/8/5 611/8/5
f 613/10/6 614/10/6 617/10/6
f 615/10/6 616/10/6 619/10/6
f 619/10/6 616/10/6 620/10/6
f 613/10/6 617/10/6 621/10/6
f 617/6/6 618/6/6 622/6/6
f 621/10/6 617/10/6 622/10/6
f 622/6/6 618/6/6 623/6/6
f 624/10/6 625/10/6 629/10/6
f 629/10/6 625/10/6 630/10/6
f 627/6/6 628/6/6 631/6/6
f 626/10/6 627/10/6 631/10/6
f 631/6/6 628/6/6 632/6/6
f 626/10/6 631/10/6 633/10/6
f 633/10/6 631/10/6 634/10/6
f 635/7/6 636/7/6 637/7/6
f 637/7/6 636/7/6 638/7/6
f 639/7/6 640/7/6 643/7/6
f 641/3/6 642/3/6 645/3/6
f 645/3/6 642/3/6 646/3/6
f 643/7/6 644/7/6 649/7/6
f 639/7/6 643/7/6 649/7/6
f 649/7/6 644/7/6 650/7/6
f 639/7/6 649/7/6 651/7/6
f 651/7/6 649/7/6 652/7/6
f 647/3/6 648/3/6 653/3/6
f 653/3/6 648/3/6 654/3/6
f 655/7/6 656/7/6 657/7/6
f 657/7/6 656/7/6 658/7/6
f 659/7/6 660/7/6 661/7/6
f 661/7/6 660/7/6 662/7/6
f 659/7/6 661/7/6 663/7/6
f 659/7/6 663/7/6 665/7/6
f 663/7/6 664/7/6 665/7/6
f 665/7/6 664/7/6 666/7/6
f 667/2/6 668/2/6 669/2/6
f 669/2/6 668/2/6 670/2/6
f 671/2/6 672/2/6 673/2/6
f 673/2/6 672/2/6 674/2/6
f 675/3/6 676/3/6 677/3/6
f 677/3/6 676/3/6 678/3/6
f 679/2/6 680/2/6 681/2/6
f 681/2/6 680/2/6 682/2/6
f 683/2/6 684/2/6 685/2/6
f 685/2/6 684/2/6 686/2/6
f 687/2/6 688/2/6 689/2/6
f 689/2/6 688/2/6 690/2/6
f 691/2/6 692/2/6 693/2/6
f 693/2/6 692/2/6 694/2/6
f 695/2/6 696/2/6 697/2/6
f 697/2/6 696/2/6 698/2/6
f 699/9/6 700/9/6 701/9/6
f 701/9/6 700/9/6 702/9/6
f 703/9/6 704/9/6 705/9/6
f 705/9/6 704/9/6 706/9/6
f 707/2/6 708/2/6 709/2/6
f 709/2/6 708/2/6 710/2/6
f 707/2/6 709/2/6 711/2/6
f 711/2/6 709/2/6 712/2/6
f 712/2/6 709/2/6 713/2/6
f 713/2/6 709/2/6 714/2/6
f 714/2/6 709/2/6 715/2/6
f 710/2/6 708/2/6 716/2/6
f 714/2/6 715/2/6 717/2/6
f 715/2/6 716/2/6 717/2/6
f 716/2/6 708/2/6 718/2/6
f 717/2/6 716/2/6 718/2/6
f 721/8/6 722/8/6 723/8/6
f 723/8/6 722/8/6 724/8/6
f 725/8/6 726/8/6 727/8/6
f 727/8/6 726/8/6 728/8/6
f 719/5/6 720/5/6 729/5/6
f 729/5/6 720/5/6 730/5/6
