# MagicaVoxel @ Ephtracy

# material
mtllib TroncoGrande.mtl
usemtl palette

# normals
vn -1 0 0
vn 1 0 0
vn 0 0 1
vn 0 0 -1
vn 0 -1 0
vn 0 1 0

# texcoords
vt 0.533203 0.5
vt 0.541016 0.5

# verts
v -5 0 20
v -5 0 -20
v -5 1 19
v -5 1 13
v -5 1 11
v -5 1 -19
v -5 2 20
v -5 2 19
v -5 2 13
v -5 2 11
v -5 2 -19
v -5 2 -20
v 3 0 20
v 3 0 -20
v 3 1 20
v 3 1 19
v 3 1 14
v 3 1 7
v 3 1 -3
v 3 1 -10
v 3 1 -14
v 3 1 -20
v -3 0 20
v -3 0 -20
v -3 1 20
v -3 1 15
v -3 1 -15
v -3 1 -20
v 5 0 20
v 5 0 -20
v 5 1 19
v 5 1 -19
v 5 2 20
v 5 2 19
v 5 2 -19
v 5 2 -20
v -5 0 20
v -5 2 20
v -3 0 20
v -3 1 20
v 3 0 20
v 3 1 20
v 5 0 20
v 5 2 20
v -5 0 -20
v -5 2 -20
v -3 0 -20
v -3 1 -20
v 3 0 -20
v 3 1 -20
v 5 0 -20
v 5 2 -20
v -5 0 20
v -3 0 20
v 3 0 20
v 5 0 20
v -5 0 -20
v -3 0 -20
v 3 0 -20
v 5 0 -20
v -3 1 20
v 3 1 20
v -2 1 19
v 3 1 19
v 0 1 17
v 1 1 17
v -3 1 15
v -2 1 15
v 2 1 14
v 3 1 14
v -2 1 12
v -1 1 12
v 0 1 12
v 1 1 12
v -2 1 7
v -1 1 7
v 2 1 7
v 3 1 7
v 0 1 6
v 1 1 6
v -2 1 4
v -1 1 4
v 0 1 2
v 1 1 2
v -2 1 -2
v -1 1 -2
v 0 1 -3
v 1 1 -3
v 2 1 -3
v 3 1 -3
v -2 1 -9
v -1 1 -9
v 2 1 -10
v 3 1 -10
v -2 1 -12
v -1 1 -12
v 2 1 -14
v 3 1 -14
v -3 1 -15
v -2 1 -15
v 0 1 -15
v 1 1 -15
v -2 1 -19
v 2 1 -19
v -3 1 -20
v 3 1 -20
v -5 2 20
v 5 2 20
v -5 2 19
v -3 2 19
v -2 2 19
v 3 2 19
v 4 2 19
v 5 2 19
v 0 2 17
v 1 2 17
v -3 2 15
v -2 2 15
v 3 2 15
v 4 2 15
v 2 2 14
v 3 2 14
v -5 2 13
v -4 2 13
v -2 2 12
v -1 2 12
v 0 2 12
v 1 2 12
v -5 2 11
v -4 2 11
v -4 2 8
v -3 2 8
v -2 2 7
v -1 2 7
v 2 2 7
v 3 2 7
v 0 2 6
v 1 2 6
v -2 2 4
v -1 2 4
v 3 2 4
v 4 2 4
v 0 2 2
v 1 2 2
v -4 2 1
v -3 2 1
v 3 2 1
v 4 2 1
v -2 2 -2
v -1 2 -2
v -4 2 -3
v -3 2 -3
v 0 2 -3
v 1 2 -3
v 2 2 -3
v 3 2 -3
v -2 2 -9
v -1 2 -9
v 2 2 -10
v 3 2 -10
v -4 2 -12
v -3 2 -12
v -2 2 -12
v -1 2 -12
v 2 2 -14
v 3 2 -14
v -3 2 -15
v -2 2 -15
v 0 2 -15
v 1 2 -15
v -5 2 -19
v -3 2 -19
v -2 2 -19
v 2 2 -19
v 3 2 -19
v 5 2 -19
v -5 2 -20
v 5 2 -20

# faces
f 3/1/1 2/1/1 1/1/1
f 4/1/1 2/1/1 3/1/1
f 5/1/1 2/1/1 4/1/1
f 6/1/1 2/1/1 5/1/1
f 7/1/1 3/1/1 1/1/1
f 8/2/1 4/2/1 3/2/1
f 8/1/1 3/1/1 7/1/1
f 9/1/1 5/1/1 4/1/1
f 9/2/1 4/2/1 8/2/1
f 10/2/1 6/2/1 5/2/1
f 10/1/1 5/1/1 9/1/1
f 11/1/1 2/1/1 6/1/1
f 11/2/1 6/2/1 10/2/1
f 12/1/1 2/1/1 11/1/1
f 15/1/1 14/1/1 13/1/1
f 16/1/1 14/1/1 15/1/1
f 17/1/1 14/1/1 16/1/1
f 18/1/1 14/1/1 17/1/1
f 19/1/1 14/1/1 18/1/1
f 20/1/1 14/1/1 19/1/1
f 21/1/1 14/1/1 20/1/1
f 22/1/1 14/1/1 21/1/1
f 23/1/2 24/1/2 25/1/2
f 25/1/2 24/1/2 26/1/2
f 26/1/2 24/1/2 27/1/2
f 27/1/2 24/1/2 28/1/2
f 29/1/2 30/1/2 31/1/2
f 31/1/2 30/1/2 32/1/2
f 29/1/2 31/1/2 33/1/2
f 31/2/2 32/2/2 34/2/2
f 33/1/2 31/1/2 34/1/2
f 32/1/2 30/1/2 35/1/2
f 34/2/2 32/2/2 35/2/2
f 35/1/2 30/1/2 36/1/2
f 39/1/3 38/1/3 37/1/3
f 40/1/3 38/1/3 39/1/3
f 42/1/3 38/1/3 40/1/3
f 43/1/3 42/1/3 41/1/3
f 44/1/3 38/1/3 42/1/3
f 44/1/3 42/1/3 43/1/3
f 45/1/4 46/1/4 47/1/4
f 47/1/4 46/1/4 48/1/4
f 48/1/4 46/1/4 50/1/4
f 49/1/4 50/1/4 51/1/4
f 50/1/4 46/1/4 52/1/4
f 51/1/4 50/1/4 52/1/4
f 57/1/5 54/1/5 53/1/5
f 58/1/5 54/1/5 57/1/5
f 59/1/5 56/1/5 55/1/5
f 60/1/5 56/1/5 59/1/5
f 63/1/5 62/1/5 61/1/5
f 64/1/5 62/1/5 63/1/5
f 65/2/5 64/2/5 63/2/5
f 66/2/5 64/2/5 65/2/5
f 67/1/5 63/1/5 61/1/5
f 68/2/5 65/2/5 63/2/5
f 68/1/5 63/1/5 67/1/5
f 69/2/5 64/2/5 66/2/5
f 70/2/5 64/2/5 69/2/5
f 71/2/5 65/2/5 68/2/5
f 71/2/5 68/2/5 67/2/5
f 72/2/5 65/2/5 71/2/5
f 73/1/5 66/1/5 65/1/5
f 73/2/5 65/2/5 72/2/5
f 74/2/5 69/2/5 66/2/5
f 74/1/5 66/1/5 73/1/5
f 75/1/5 72/1/5 71/1/5
f 75/2/5 71/2/5 67/2/5
f 76/2/5 73/2/5 72/2/5
f 76/1/5 72/1/5 75/1/5
f 76/2/5 74/2/5 73/2/5
f 77/2/5 69/2/5 74/2/5
f 77/2/5 74/2/5 76/2/5
f 77/1/5 70/1/5 69/1/5
f 78/1/5 70/1/5 77/1/5
f 79/2/5 76/2/5 75/2/5
f 79/2/5 77/2/5 76/2/5
f 79/2/5 78/2/5 77/2/5
f 80/2/5 78/2/5 79/2/5
f 81/2/5 75/2/5 67/2/5
f 81/2/5 79/2/5 75/2/5
f 82/2/5 79/2/5 81/2/5
f 83/1/5 80/1/5 79/1/5
f 83/2/5 79/2/5 82/2/5
f 84/2/5 78/2/5 80/2/5
f 84/1/5 80/1/5 83/1/5
f 85/1/5 82/1/5 81/1/5
f 85/2/5 81/2/5 67/2/5
f 86/2/5 83/2/5 82/2/5
f 86/1/5 82/1/5 85/1/5
f 86/2/5 84/2/5 83/2/5
f 87/2/5 86/2/5 85/2/5
f 87/2/5 84/2/5 86/2/5
f 88/2/5 78/2/5 84/2/5
f 88/2/5 84/2/5 87/2/5
f 89/2/5 78/2/5 88/2/5
f 90/2/5 78/2/5 89/2/5
f 91/2/5 85/2/5 67/2/5
f 91/2/5 87/2/5 85/2/5
f 92/2/5 87/2/5 91/2/5
f 93/1/5 90/1/5 89/1/5
f 93/2/5 89/2/5 88/2/5
f 94/1/5 90/1/5 93/1/5
f 95/1/5 92/1/5 91/1/5
f 95/2/5 91/2/5 67/2/5
f 96/2/5 87/2/5 92/2/5
f 96/1/5 92/1/5 95/1/5
f 97/2/5 94/2/5 93/2/5
f 97/2/5 93/2/5 88/2/5
f 98/2/5 94/2/5 97/2/5
f 99/2/5 95/2/5 67/2/5
f 99/2/5 96/2/5 95/2/5
f 100/2/5 96/2/5 99/2/5
f 101/1/5 88/1/5 87/1/5
f 101/2/5 96/2/5 100/2/5
f 101/2/5 87/2/5 96/2/5
f 102/2/5 97/2/5 88/2/5
f 102/1/5 88/1/5 101/1/5
f 103/1/5 100/1/5 99/1/5
f 103/2/5 101/2/5 100/2/5
f 103/2/5 102/2/5 101/2/5
f 104/2/5 97/2/5 102/2/5
f 104/2/5 102/2/5 103/2/5
f 104/1/5 98/1/5 97/1/5
f 105/1/5 103/1/5 99/1/5
f 105/1/5 104/1/5 103/1/5
f 106/1/5 98/1/5 104/1/5
f 106/1/5 104/1/5 105/1/5
f 107/1/6 108/1/6 109/1/6
f 109/1/6 108/1/6 110/1/6
f 110/1/6 108/1/6 111/1/6
f 111/1/6 108/1/6 112/1/6
f 112/1/6 108/1/6 113/1/6
f 113/1/6 108/1/6 114/1/6
f 111/2/6 112/2/6 115/2/6
f 115/2/6 112/2/6 116/2/6
f 109/2/6 110/2/6 117/2/6
f 110/1/6 111/1/6 117/1/6
f 111/2/6 115/2/6 118/2/6
f 117/1/6 111/1/6 118/1/6
f 116/2/6 112/2/6 119/2/6
f 112/1/6 113/1/6 119/1/6
f 113/2/6 114/2/6 120/2/6
f 119/1/6 113/1/6 120/1/6
f 116/2/6 119/2/6 121/2/6
f 119/2/6 120/2/6 121/2/6
f 121/2/6 120/2/6 122/2/6
f 117/2/6 118/2/6 123/2/6
f 109/2/6 117/2/6 123/2/6
f 123/2/6 118/2/6 124/2/6
f 118/2/6 115/2/6 125/2/6
f 124/2/6 118/2/6 125/2/6
f 125/2/6 115/2/6 126/2/6
f 115/1/6 116/1/6 127/1/6
f 126/2/6 115/2/6 127/2/6
f 116/2/6 121/2/6 128/2/6
f 127/1/6 116/1/6 128/1/6
f 123/1/6 124/1/6 129/1/6
f 124/2/6 125/2/6 130/2/6
f 129/1/6 124/1/6 130/1/6
f 129/2/6 130/2/6 131/2/6
f 130/2/6 125/2/6 131/2/6
f 131/2/6 125/2/6 132/2/6
f 125/1/6 126/1/6 133/1/6
f 132/2/6 125/2/6 133/2/6
f 126/2/6 127/2/6 134/2/6
f 133/1/6 126/1/6 134/1/6
f 127/2/6 128/2/6 134/2/6
f 128/2/6 121/2/6 135/2/6
f 134/2/6 128/2/6 135/2/6
f 121/1/6 122/1/6 135/1/6
f 122/2/6 120/2/6 136/2/6
f 135/1/6 122/1/6 136/1/6
f 133/2/6 134/2/6 137/2/6
f 134/2/6 135/2/6 137/2/6
f 135/2/6 136/2/6 137/2/6
f 137/2/6 136/2/6 138/2/6
f 132/2/6 133/2/6 139/2/6
f 133/2/6 137/2/6 139/2/6
f 139/2/6 137/2/6 140/2/6
f 136/2/6 120/2/6 141/2/6
f 138/2/6 136/2/6 141/2/6
f 120/2/6 114/2/6 142/2/6
f 141/2/6 120/2/6 142/2/6
f 140/2/6 137/2/6 143/2/6
f 137/1/6 138/1/6 143/1/6
f 138/2/6 141/2/6 144/2/6
f 143/1/6 138/1/6 144/1/6
f 131/1/6 132/1/6 145/1/6
f 129/2/6 131/2/6 145/2/6
f 132/2/6 139/2/6 146/2/6
f 145/1/6 132/1/6 146/1/6
f 144/2/6 141/2/6 147/2/6
f 143/2/6 144/2/6 147/2/6
f 141/1/6 142/1/6 147/1/6
f 142/2/6 114/2/6 148/2/6
f 147/1/6 142/1/6 148/1/6
f 146/2/6 139/2/6 149/2/6
f 145/2/6 146/2/6 149/2/6
f 139/1/6 140/1/6 149/1/6
f 143/2/6 147/2/6 150/2/6
f 149/1/6 140/1/6 150/1/6
f 140/2/6 143/2/6 150/2/6
f 147/2/6 148/2/6 150/2/6
f 145/2/6 149/2/6 151/2/6
f 129/2/6 145/2/6 151/2/6
f 149/2/6 150/2/6 151/2/6
f 151/2/6 150/2/6 152/2/6
f 150/2/6 148/2/6 153/2/6
f 152/2/6 150/2/6 153/2/6
f 153/2/6 148/2/6 154/2/6
f 154/2/6 148/2/6 155/2/6
f 155/2/6 148/2/6 156/2/6
f 152/2/6 153/2/6 157/2/6
f 157/2/6 153/2/6 158/2/6
f 154/2/6 155/2/6 159/2/6
f 155/1/6 156/1/6 159/1/6
f 156/2/6 148/2/6 160/2/6
f 159/1/6 156/1/6 160/1/6
f 151/1/6 152/1/6 161/1/6
f 129/2/6 151/2/6 161/2/6
f 152/2/6 157/2/6 162/2/6
f 161/1/6 152/1/6 162/1/6
f 157/1/6 158/1/6 163/1/6
f 162/2/6 157/2/6 163/2/6
f 158/2/6 153/2/6 164/2/6
f 163/1/6 158/1/6 164/1/6
f 159/2/6 160/2/6 165/2/6
f 154/2/6 159/2/6 165/2/6
f 160/2/6 148/2/6 166/2/6
f 165/2/6 160/2/6 166/2/6
f 163/2/6 164/2/6 167/2/6
f 162/2/6 163/2/6 167/2/6
f 161/2/6 162/2/6 167/2/6
f 167/2/6 164/2/6 168/2/6
f 164/2/6 153/2/6 169/2/6
f 168/2/6 164/2/6 169/2/6
f 153/1/6 154/1/6 169/1/6
f 154/2/6 165/2/6 170/2/6
f 169/1/6 154/1/6 170/1/6
f 161/2/6 167/2/6 171/2/6
f 129/2/6 161/2/6 171/2/6
f 167/1/6 168/1/6 172/1/6
f 171/2/6 167/2/6 172/2/6
f 168/2/6 169/2/6 173/2/6
f 172/1/6 168/1/6 173/1/6
f 169/2/6 170/2/6 173/2/6
f 170/2/6 165/2/6 174/2/6
f 173/2/6 170/2/6 174/2/6
f 165/1/6 166/1/6 174/1/6
f 166/2/6 148/2/6 175/2/6
f 174/1/6 166/1/6 175/1/6
f 148/2/6 114/2/6 176/2/6
f 175/2/6 148/2/6 176/2/6
f 171/1/6 172/1/6 177/1/6
f 174/1/6 175/1/6 177/1/6
f 175/1/6 176/1/6 177/1/6
f 172/1/6 173/1/6 177/1/6
f 173/1/6 174/1/6 177/1/6
f 177/1/6 176/1/6 178/1/6
