# MagicaVoxel @ Ephtracy

# material
mtllib Sapo.mtl
usemtl palette

# normals
vn -1 0 0
vn 1 0 0
vn 0 0 1
vn 0 0 -1
vn 0 -1 0
vn 0 1 0

# texcoords
vt 0.00195313 0.5
vt 0.744141 0.5
vt 0.892578 0.5
vt 0.896484 0.5
vt 0.900391 0.5
vt 0.955078 0.5

# verts
v -5 3 5
v -5 3 3
v -5 3 -3
v -5 3 -5
v -5 4 6
v -5 4 5
v -5 4 4
v -5 4 3
v -5 4 -3
v -5 4 -5
v -5 4 -6
v -5 5 6
v -5 5 5
v -5 6 6
v -5 6 5
v -5 6 -2
v -5 6 -3
v -5 7 6
v -5 7 4
v -5 7 -1
v -5 7 -2
v -5 7 -3
v -5 8 3
v -5 8 2
v -5 8 -1
v -5 8 -2
v -5 8 -3
v -5 9 6
v -5 9 3
v -5 9 2
v -5 9 -2
v -5 9 -3
v -5 9 -6
v -4 9 5
v -4 9 4
v -4 9 3
v -4 12 5
v -4 12 4
v -4 12 3
v 1 9 5
v 1 9 4
v 1 9 3
v 1 12 5
v 1 12 4
v 1 12 3
v 4 3 5
v 4 3 3
v 4 3 -3
v 4 3 -5
v 4 4 5
v 4 4 3
v 4 4 -3
v 4 4 -5
v -4 3 5
v -4 3 3
v -4 3 -3
v -4 3 -5
v -4 4 5
v -4 4 3
v -4 4 -3
v -4 4 -5
v -1 9 5
v -1 9 4
v -1 9 3
v -1 12 5
v -1 12 4
v -1 12 3
v 4 9 5
v 4 9 4
v 4 9 3
v 4 12 5
v 4 12 4
v 4 12 3
v 5 3 5
v 5 3 3
v 5 3 -3
v 5 3 -5
v 5 4 6
v 5 4 5
v 5 4 4
v 5 4 3
v 5 4 -3
v 5 4 -5
v 5 4 -6
v 5 5 6
v 5 5 5
v 5 6 6
v 5 6 5
v 5 6 -2
v 5 6 -3
v 5 7 6
v 5 7 4
v 5 7 -1
v 5 7 -2
v 5 7 -3
v 5 8 3
v 5 8 2
v 5 8 -1
v 5 8 -2
v 5 8 -3
v 5 9 6
v 5 9 3
v 5 9 2
v 5 9 -2
v 5 9 -3
v 5 9 -6
v -5 4 6
v -5 5 6
v -5 6 6
v -5 7 6
v -5 9 6
v -3 7 6
v -3 8 6
v -2 7 6
v -2 8 6
v -1 7 6
v -1 9 6
v 1 7 6
v 1 9 6
v 2 7 6
v 2 8 6
v 3 7 6
v 3 8 6
v 5 4 6
v 5 5 6
v 5 6 6
v 5 7 6
v 5 9 6
v -5 3 5
v -5 4 5
v -5 5 5
v -5 6 5
v -4 3 5
v -4 4 5
v -4 5 5
v -4 6 5
v -4 9 5
v -4 12 5
v -3 10 5
v -3 11 5
v -2 10 5
v -2 11 5
v -1 9 5
v -1 12 5
v 1 9 5
v 1 12 5
v 2 10 5
v 2 11 5
v 3 10 5
v 3 11 5
v 4 3 5
v 4 4 5
v 4 5 5
v 4 6 5
v 4 9 5
v 4 12 5
v 5 3 5
v 5 4 5
v 5 5 5
v 5 6 5
v -5 3 -3
v -5 4 -3
v -4 3 -3
v -4 4 -3
v 4 3 -3
v 4 4 -3
v 5 3 -3
v 5 4 -3
v -5 3 3
v -5 4 3
v -4 3 3
v -4 4 3
v -4 9 3
v -4 12 3
v -1 9 3
v -1 12 3
v 1 9 3
v 1 12 3
v 4 3 3
v 4 4 3
v 4 9 3
v 4 12 3
v 5 3 3
v 5 4 3
v -5 3 -5
v -5 4 -5
v -4 3 -5
v -4 4 -5
v 4 3 -5
v 4 4 -5
v 5 3 -5
v 5 4 -5
v -5 4 -6
v -5 9 -6
v -1 4 -6
v -1 9 -6
v 1 4 -6
v 1 9 -6
v 5 4 -6
v 5 9 -6
v -5 3 5
v -4 3 5
v 4 3 5
v 5 3 5
v -5 3 3
v -4 3 3
v 4 3 3
v 5 3 3
v -5 3 -3
v -4 3 -3
v 4 3 -3
v 5 3 -3
v -5 3 -5
v -4 3 -5
v 4 3 -5
v 5 3 -5
v -5 4 6
v 5 4 6
v -5 4 5
v -4 4 5
v -1 4 5
v 1 4 5
v 4 4 5
v 5 4 5
v -5 4 3
v -4 4 3
v 4 4 3
v 5 4 3
v -5 4 -3
v -4 4 -3
v 4 4 -3
v 5 4 -3
v -5 4 -5
v -4 4 -5
v 4 4 -5
v 5 4 -5
v -5 4 -6
v -1 4 -6
v 1 4 -6
v 5 4 -6
v -5 6 6
v 5 6 6
v -5 6 5
v -4 6 5
v 4 6 5
v 5 6 5
v -5 5 6
v 5 5 6
v -5 5 5
v -4 5 5
v 4 5 5
v 5 5 5
v -5 9 6
v -1 9 6
v 1 9 6
v 5 9 6
v -4 9 5
v -1 9 5
v 1 9 5
v 4 9 5
v -4 9 4
v -1 9 4
v 1 9 4
v 4 9 4
v -5 9 3
v -4 9 3
v -1 9 3
v 1 9 3
v 4 9 3
v 5 9 3
v -5 9 2
v -4 9 2
v 4 9 2
v 5 9 2
v -5 9 -2
v -4 9 -2
v 4 9 -2
v 5 9 -2
v -5 9 -3
v -4 9 -3
v 4 9 -3
v 5 9 -3
v -5 9 -6
v -1 9 -6
v 1 9 -6
v 5 9 -6
v -4 12 5
v -1 12 5
v 1 12 5
v 4 12 5
v -4 12 4
v -1 12 4
v 1 12 4
v 4 12 4
v -4 12 3
v -1 12 3
v 1 12 3
v 4 12 3

# faces
f 6/4/1 2/4/1 1/4/1
f 7/4/1 2/4/1 6/4/1
f 8/4/1 2/4/1 7/4/1
f 9/4/1 4/4/1 3/4/1
f 10/4/1 4/4/1 9/4/1
f 12/2/1 6/2/1 5/2/1
f 12/2/1 7/2/1 6/2/1
f 13/2/1 7/2/1 12/2/1
f 15/2/1 7/2/1 13/2/1
f 16/4/1 8/4/1 7/4/1
f 16/4/1 11/4/1 10/4/1
f 16/4/1 10/4/1 9/4/1
f 16/4/1 9/4/1 8/4/1
f 17/4/1 11/4/1 16/4/1
f 18/2/1 15/2/1 14/2/1
f 19/2/1 7/2/1 15/2/1
f 19/2/1 15/2/1 18/2/1
f 19/4/1 16/4/1 7/4/1
f 20/4/1 16/4/1 19/4/1
f 21/5/1 17/5/1 16/5/1
f 21/4/1 16/4/1 20/4/1
f 22/4/1 11/4/1 17/4/1
f 22/5/1 17/5/1 21/5/1
f 23/4/1 20/4/1 19/4/1
f 23/4/1 19/4/1 18/4/1
f 24/4/1 20/4/1 23/4/1
f 25/5/1 21/5/1 20/5/1
f 25/4/1 20/4/1 24/4/1
f 26/4/1 22/4/1 21/4/1
f 26/5/1 21/5/1 25/5/1
f 27/4/1 11/4/1 22/4/1
f 27/4/1 22/4/1 26/4/1
f 28/4/1 23/4/1 18/4/1
f 29/5/1 24/5/1 23/5/1
f 29/4/1 23/4/1 28/4/1
f 30/4/1 26/4/1 25/4/1
f 30/5/1 24/5/1 29/5/1
f 30/4/1 25/4/1 24/4/1
f 31/5/1 27/5/1 26/5/1
f 31/4/1 26/4/1 30/4/1
f 32/4/1 11/4/1 27/4/1
f 32/5/1 27/5/1 31/5/1
f 33/4/1 11/4/1 32/4/1
f 37/1/1 35/1/1 34/1/1
f 38/3/1 36/3/1 35/3/1
f 38/1/1 35/1/1 37/1/1
f 39/3/1 36/3/1 38/3/1
f 43/1/1 41/1/1 40/1/1
f 44/3/1 42/3/1 41/3/1
f 44/1/1 41/1/1 43/1/1
f 45/3/1 42/3/1 44/3/1
f 50/4/1 47/4/1 46/4/1
f 51/4/1 47/4/1 50/4/1
f 52/4/1 49/4/1 48/4/1
f 53/4/1 49/4/1 52/4/1
f 54/4/2 55/4/2 58/4/2
f 58/4/2 55/4/2 59/4/2
f 56/4/2 57/4/2 60/4/2
f 60/4/2 57/4/2 61/4/2
f 62/1/2 63/1/2 65/1/2
f 63/3/2 64/3/2 66/3/2
f 65/1/2 63/1/2 66/1/2
f 66/3/2 64/3/2 67/3/2
f 68/1/2 69/1/2 71/1/2
f 69/3/2 70/3/2 72/3/2
f 71/1/2 69/1/2 72/1/2
f 72/3/2 70/3/2 73/3/2
f 74/4/2 75/4/2 79/4/2
f 79/4/2 75/4/2 80/4/2
f 80/4/2 75/4/2 81/4/2
f 76/4/2 77/4/2 82/4/2
f 82/4/2 77/4/2 83/4/2
f 78/2/2 79/2/2 85/2/2
f 79/2/2 80/2/2 85/2/2
f 85/2/2 80/2/2 86/2/2
f 86/2/2 80/2/2 88/2/2
f 80/4/2 81/4/2 89/4/2
f 83/4/2 84/4/2 89/4/2
f 82/4/2 83/4/2 89/4/2
f 81/4/2 82/4/2 89/4/2
f 89/4/2 84/4/2 90/4/2
f 87/2/2 88/2/2 91/2/2
f 88/2/2 80/2/2 92/2/2
f 91/2/2 88/2/2 92/2/2
f 80/4/2 89/4/2 92/4/2
f 92/4/2 89/4/2 93/4/2
f 89/5/2 90/5/2 94/5/2
f 93/4/2 89/4/2 94/4/2
f 90/4/2 84/4/2 95/4/2
f 94/5/2 90/5/2 95/5/2
f 92/4/2 93/4/2 96/4/2
f 91/4/2 92/4/2 96/4/2
f 96/4/2 93/4/2 97/4/2
f 93/5/2 94/5/2 98/5/2
f 97/4/2 93/4/2 98/4/2
f 94/4/2 95/4/2 99/4/2
f 98/5/2 94/5/2 99/5/2
f 95/4/2 84/4/2 100/4/2
f 99/4/2 95/4/2 100/4/2
f 91/4/2 96/4/2 101/4/2
f 96/5/2 97/5/2 102/5/2
f 101/4/2 96/4/2 102/4/2
f 98/4/2 99/4/2 103/4/2
f 102/5/2 97/5/2 103/5/2
f 97/4/2 98/4/2 103/4/2
f 99/5/2 100/5/2 104/5/2
f 103/4/2 99/4/2 104/4/2
f 100/4/2 84/4/2 105/4/2
f 104/5/2 100/5/2 105/5/2
f 105/4/2 84/4/2 106/4/2
f 112/2/3 110/2/3 109/2/3
f 112/4/3 111/4/3 110/4/3
f 113/4/3 111/4/3 112/4/3
f 114/2/3 112/2/3 109/2/3
f 114/5/3 113/5/3 112/5/3
f 115/4/3 111/4/3 113/4/3
f 115/5/3 113/5/3 114/5/3
f 116/2/3 114/2/3 109/2/3
f 116/4/3 115/4/3 114/4/3
f 117/4/3 111/4/3 115/4/3
f 117/4/3 115/4/3 116/4/3
f 118/2/3 116/2/3 109/2/3
f 118/5/3 117/5/3 116/5/3
f 119/5/3 117/5/3 118/5/3
f 120/2/3 118/2/3 109/2/3
f 120/4/3 119/4/3 118/4/3
f 121/4/3 119/4/3 120/4/3
f 122/2/3 120/2/3 109/2/3
f 122/5/3 121/5/3 120/5/3
f 123/4/3 119/4/3 121/4/3
f 123/5/3 121/5/3 122/5/3
f 124/2/3 108/2/3 107/2/3
f 125/2/3 108/2/3 124/2/3
f 126/2/3 122/2/3 109/2/3
f 127/4/3 123/4/3 122/4/3
f 127/2/3 122/2/3 126/2/3
f 128/4/3 119/4/3 123/4/3
f 128/4/3 123/4/3 127/4/3
f 133/4/3 130/4/3 129/4/3
f 134/4/3 130/4/3 133/4/3
f 135/2/3 132/2/3 131/2/3
f 136/2/3 132/2/3 135/2/3
f 139/1/3 138/1/3 137/1/3
f 140/1/3 138/1/3 139/1/3
f 141/1/3 139/1/3 137/1/3
f 141/6/3 140/6/3 139/6/3
f 142/1/3 138/1/3 140/1/3
f 142/6/3 140/6/3 141/6/3
f 143/1/3 141/1/3 137/1/3
f 143/1/3 142/1/3 141/1/3
f 144/1/3 138/1/3 142/1/3
f 144/1/3 142/1/3 143/1/3
f 147/1/3 146/1/3 145/1/3
f 148/1/3 146/1/3 147/1/3
f 149/1/3 147/1/3 145/1/3
f 149/6/3 148/6/3 147/6/3
f 150/1/3 146/1/3 148/1/3
f 150/6/3 148/6/3 149/6/3
f 153/4/3 136/4/3 135/4/3
f 154/4/3 136/4/3 153/4/3
f 155/1/3 149/1/3 145/1/3
f 155/1/3 150/1/3 149/1/3
f 156/1/3 146/1/3 150/1/3
f 156/1/3 150/1/3 155/1/3
f 157/4/3 152/4/3 151/4/3
f 158/4/3 152/4/3 157/4/3
f 159/2/3 154/2/3 153/2/3
f 160/2/3 154/2/3 159/2/3
f 163/4/3 162/4/3 161/4/3
f 164/4/3 162/4/3 163/4/3
f 167/4/3 166/4/3 165/4/3
f 168/4/3 166/4/3 167/4/3
f 169/4/4 170/4/4 171/4/4
f 171/4/4 170/4/4 172/4/4
f 173/3/4 174/3/4 175/3/4
f 175/3/4 174/3/4 176/3/4
f 177/3/4 178/3/4 181/3/4
f 181/3/4 178/3/4 182/3/4
f 179/4/4 180/4/4 183/4/4
f 183/4/4 180/4/4 184/4/4
f 185/4/4 186/4/4 187/4/4
f 187/4/4 186/4/4 188/4/4
f 189/4/4 190/4/4 191/4/4
f 191/4/4 190/4/4 192/4/4
f 193/4/4 194/4/4 195/4/4
f 195/4/4 194/4/4 196/4/4
f 195/5/4 196/5/4 197/5/4
f 197/5/4 196/5/4 198/5/4
f 197/4/4 198/4/4 199/4/4
f 199/4/4 198/4/4 200/4/4
f 205/4/5 202/4/5 201/4/5
f 206/4/5 202/4/5 205/4/5
f 207/4/5 204/4/5 203/4/5
f 208/4/5 204/4/5 207/4/5
f 213/4/5 210/4/5 209/4/5
f 214/4/5 210/4/5 213/4/5
f 215/4/5 212/4/5 211/4/5
f 216/4/5 212/4/5 215/4/5
f 219/2/5 218/2/5 217/2/5
f 220/2/5 218/2/5 219/2/5
f 221/2/5 218/2/5 220/2/5
f 222/2/5 218/2/5 221/2/5
f 223/2/5 218/2/5 222/2/5
f 224/2/5 218/2/5 223/2/5
f 226/4/5 221/4/5 220/4/5
f 227/4/5 223/4/5 222/4/5
f 229/4/5 226/4/5 225/4/5
f 230/4/5 221/4/5 226/4/5
f 230/4/5 226/4/5 229/4/5
f 231/4/5 228/4/5 227/4/5
f 231/4/5 227/4/5 222/4/5
f 232/4/5 228/4/5 231/4/5
f 234/4/5 221/4/5 230/4/5
f 235/4/5 231/4/5 222/4/5
f 237/4/5 234/4/5 233/4/5
f 238/5/5 222/5/5 221/5/5
f 238/4/5 234/4/5 237/4/5
f 238/4/5 221/4/5 234/4/5
f 239/4/5 236/4/5 235/4/5
f 239/5/5 222/5/5 238/5/5
f 239/4/5 235/4/5 222/4/5
f 240/4/5 236/4/5 239/4/5
f 243/2/5 242/2/5 241/2/5
f 244/2/5 242/2/5 243/2/5
f 245/2/5 242/2/5 244/2/5
f 246/2/5 242/2/5 245/2/5
f 247/2/6 248/2/6 249/2/6
f 249/2/6 248/2/6 250/2/6
f 250/2/6 248/2/6 251/2/6
f 251/2/6 248/2/6 252/2/6
f 253/4/6 254/4/6 257/4/6
f 254/5/6 255/5/6 258/5/6
f 257/4/6 254/4/6 258/4/6
f 255/4/6 256/4/6 259/4/6
f 258/5/6 255/5/6 259/5/6
f 259/4/6 256/4/6 260/4/6
f 253/4/6 257/4/6 261/4/6
f 258/5/6 259/5/6 262/5/6
f 262/5/6 259/5/6 263/5/6
f 260/4/6 256/4/6 264/4/6
f 253/4/6 261/4/6 265/4/6
f 265/4/6 261/4/6 266/4/6
f 262/5/6 263/5/6 267/5/6
f 267/5/6 263/5/6 268/5/6
f 264/4/6 256/4/6 269/4/6
f 269/4/6 256/4/6 270/4/6
f 265/5/6 266/5/6 271/5/6
f 266/4/6 267/4/6 272/4/6
f 271/5/6 266/5/6 272/5/6
f 268/4/6 269/4/6 273/4/6
f 269/5/6 270/5/6 273/5/6
f 273/5/6 270/5/6 274/5/6
f 271/4/6 272/4/6 275/4/6
f 272/4/6 267/4/6 276/4/6
f 275/4/6 272/4/6 276/4/6
f 268/4/6 273/4/6 277/4/6
f 273/4/6 274/4/6 277/4/6
f 277/4/6 274/4/6 278/4/6
f 275/5/6 276/5/6 279/5/6
f 276/4/6 267/4/6 280/4/6
f 279/5/6 276/5/6 280/5/6
f 268/4/6 277/4/6 281/4/6
f 277/5/6 278/5/6 281/5/6
f 281/5/6 278/5/6 282/5/6
f 279/4/6 280/4/6 283/4/6
f 267/5/6 268/5/6 284/5/6
f 283/4/6 280/4/6 284/4/6
f 280/4/6 267/4/6 284/4/6
f 281/4/6 282/4/6 285/4/6
f 284/5/6 268/5/6 285/5/6
f 268/4/6 281/4/6 285/4/6
f 285/4/6 282/4/6 286/4/6
f 287/1/6 288/1/6 291/1/6
f 291/1/6 288/1/6 292/1/6
f 289/1/6 290/1/6 293/1/6
f 293/1/6 290/1/6 294/1/6
f 291/3/6 292/3/6 295/3/6
f 295/3/6 292/3/6 296/3/6
f 293/3/6 294/3/6 297/3/6
f 297/3/6 294/3/6 298/3/6
