# MagicaVoxel @ Ephtracy

# material
mtllib Chao.mtl
usemtl palette

# normals
vn -1 0 0
vn 1 0 0
vn 0 0 1
vn 0 0 -1
vn 0 -1 0
vn 0 1 0

# texcoords
vt 0.896484 0.5
vt 0.900391 0.5

# verts
v -10 0 10
v -10 0 -10
v -10 19 10
v -10 19 5
v -10 19 -5
v -10 19 -10
v -10 20 10
v -10 20 5
v -10 20 -5
v -10 20 -10
v 10 0 10
v 10 0 -10
v 10 19 10
v 10 19 5
v 10 19 -5
v 10 19 -10
v 10 20 10
v 10 20 5
v 10 20 -5
v 10 20 -10
v -10 0 10
v -10 19 10
v -10 20 10
v -5 19 10
v -5 20 10
v 5 19 10
v 5 20 10
v 10 0 10
v 10 19 10
v 10 20 10
v -10 0 -10
v -10 19 -10
v -10 20 -10
v -5 19 -10
v -5 20 -10
v 5 19 -10
v 5 20 -10
v 10 0 -10
v 10 19 -10
v 10 20 -10
v -10 0 10
v 10 0 10
v -10 0 -10
v 10 0 -10
v -10 20 10
v -5 20 10
v 5 20 10
v 10 20 10
v -10 20 5
v -5 20 5
v 5 20 5
v 10 20 5
v -10 20 -5
v -5 20 -5
v 5 20 -5
v 10 20 -5
v -10 20 -10
v -5 20 -10
v 5 20 -10
v 10 20 -10

# faces
f 3/1/1 2/1/1 1/1/1
f 4/1/1 2/1/1 3/1/1
f 5/1/1 2/1/1 4/1/1
f 6/1/1 2/1/1 5/1/1
f 7/2/1 4/2/1 3/2/1
f 8/1/1 5/1/1 4/1/1
f 8/2/1 4/2/1 7/2/1
f 9/2/1 6/2/1 5/2/1
f 9/1/1 5/1/1 8/1/1
f 10/2/1 6/2/1 9/2/1
f 11/1/2 12/1/2 13/1/2
f 13/1/2 12/1/2 14/1/2
f 14/1/2 12/1/2 15/1/2
f 15/1/2 12/1/2 16/1/2
f 13/2/2 14/2/2 17/2/2
f 14/1/2 15/1/2 18/1/2
f 17/2/2 14/2/2 18/2/2
f 15/2/2 16/2/2 19/2/2
f 18/1/2 15/1/2 19/1/2
f 19/2/2 16/2/2 20/2/2
f 24/1/3 22/1/3 21/1/3
f 24/2/3 23/2/3 22/2/3
f 25/2/3 23/2/3 24/2/3
f 26/1/3 24/1/3 21/1/3
f 26/1/3 25/1/3 24/1/3
f 27/1/3 25/1/3 26/1/3
f 28/1/3 26/1/3 21/1/3
f 29/2/3 27/2/3 26/2/3
f 29/1/3 26/1/3 28/1/3
f 30/2/3 27/2/3 29/2/3
f 31/1/4 32/1/4 34/1/4
f 32/2/4 33/2/4 34/2/4
f 34/2/4 33/2/4 35/2/4
f 31/1/4 34/1/4 36/1/4
f 34/1/4 35/1/4 36/1/4
f 36/1/4 35/1/4 37/1/4
f 31/1/4 36/1/4 38/1/4
f 36/2/4 37/2/4 39/2/4
f 38/1/4 36/1/4 39/1/4
f 39/2/4 37/2/4 40/2/4
f 43/1/5 42/1/5 41/1/5
f 44/1/5 42/1/5 43/1/5
f 45/2/6 46/2/6 49/2/6
f 46/1/6 47/1/6 50/1/6
f 49/2/6 46/2/6 50/2/6
f 47/2/6 48/2/6 51/2/6
f 50/1/6 47/1/6 51/1/6
f 51/2/6 48/2/6 52/2/6
f 49/1/6 50/1/6 53/1/6
f 50/2/6 51/2/6 54/2/6
f 53/1/6 50/1/6 54/1/6
f 51/1/6 52/1/6 55/1/6
f 54/2/6 51/2/6 55/2/6
f 55/1/6 52/1/6 56/1/6
f 53/2/6 54/2/6 57/2/6
f 54/1/6 55/1/6 58/1/6
f 57/2/6 54/2/6 58/2/6
f 55/2/6 56/2/6 59/2/6
f 58/1/6 55/1/6 59/1/6
f 59/2/6 56/2/6 60/2/6
