# MagicaVoxel @ Ephtracy

# material
mtllib CarroLaranja.mtl
usemtl palette

# normals
vn -1 0 0
vn 1 0 0
vn 0 0 1
vn 0 0 -1
vn 0 -1 0
vn 0 1 0

# texcoords
vt 0.00195313 0.5
vt 0.0175781 0.5
vt 0.0644531 0.5
vt 0.138672 0.5
vt 0.962891 0.5
vt 0.966797 0.5
vt 0.974609 0.5
vt 0.990234 0.5
vt 0.994141 0.5

# verts
v -18 3 5
v -18 3 4
v -18 4 5
v -18 4 4
v -18 6 5
v -18 6 3
v -18 6 -3
v -18 6 -5
v -18 8 5
v -18 8 3
v -18 8 -3
v -18 8 -5
v -17 4 7
v -17 4 5
v -17 4 4
v -17 4 -7
v -17 6 5
v -17 6 3
v -17 6 -3
v -17 6 -5
v -17 8 5
v -17 8 3
v -17 8 -3
v -17 8 -5
v -17 9 7
v -17 9 -7
v -12 9 6
v -12 9 5
v -12 9 -5
v -12 9 -6
v -12 13 5
v -12 13 -5
v -12 14 6
v -12 14 -6
v -11 1 8
v -11 1 6
v -11 1 -6
v -11 1 -8
v -11 4 6
v -11 4 -6
v -11 6 8
v -11 6 6
v -11 6 -6
v -11 6 -8
v -11 9 5
v -11 9 -5
v -11 13 5
v -11 13 -5
v -9 3 6
v -9 3 -6
v -9 4 7
v -9 4 6
v -9 4 -6
v -9 5 7
v -9 5 6
v -7 4 7
v -7 4 6
v -7 5 7
v -7 5 6
v -5 4 7
v -5 4 6
v -5 4 -6
v -5 4 -7
v -5 7 7
v -5 7 6
v -5 7 -6
v -5 7 -7
v -5 9 6
v -5 9 5
v -5 9 -5
v -5 9 -6
v -5 13 6
v -5 13 5
v -5 13 -5
v -5 13 -6
v 6 1 8
v 6 1 6
v 6 1 -6
v 6 1 -8
v 6 4 6
v 6 4 -6
v 6 6 8
v 6 6 6
v 6 6 -6
v 6 6 -8
v 7 9 6
v 7 9 5
v 7 10 8
v 7 10 6
v 7 10 5
v 7 11 8
v 7 11 6
v 8 3 6
v 8 3 -7
v 8 4 7
v 8 4 6
v 8 4 -6
v 8 4 -7
v 8 5 7
v 8 5 6
v 8 5 -6
v 8 5 -7
v 8 9 -5
v 8 9 -6
v 8 10 6
v 8 10 5
v 8 10 -5
v 8 10 -6
v 8 10 -8
v 8 11 6
v 8 11 -6
v 8 11 -8
v 8 13 6
v 8 13 5
v 9 10 -5
v 9 10 -6
v 9 11 -6
v 9 13 -5
v 9 13 -6
v 10 2 -6
v 10 2 -7
v 10 4 7
v 10 4 6
v 10 4 -6
v 10 5 7
v 10 5 6
v 10 5 -6
v 10 5 -7
v 12 4 7
v 12 4 6
v 12 4 -6
v 12 4 -7
v 12 7 7
v 12 7 6
v 12 7 -6
v 12 7 -7
v 16 3 2
v 16 3 -2
v 16 4 2
v 16 4 -2
v -14 3 5
v -14 3 4
v -14 4 5
v -14 4 4
v -12 4 7
v -12 4 6
v -12 4 -6
v -12 4 -7
v -12 7 7
v -12 7 6
v -12 7 -6
v -12 7 -7
v -11 9 6
v -11 9 5
v -11 9 -5
v -11 9 -6
v -11 13 6
v -11 13 5
v -11 13 -5
v -11 13 -6
v -10 4 7
v -10 4 6
v -10 5 7
v -10 5 6
v -8 3 6
v -8 3 -6
v -8 4 7
v -8 4 6
v -8 4 -6
v -8 5 7
v -8 5 6
v -6 1 8
v -6 1 6
v -6 1 -6
v -6 1 -8
v -6 4 6
v -6 4 -6
v -6 6 8
v -6 6 6
v -6 6 -6
v -6 6 -8
v -3 9 6
v -3 9 5
v -3 9 -5
v -3 9 -6
v -3 13 6
v -3 13 5
v -3 13 -5
v -3 13 -6
v 5 4 7
v 5 4 6
v 5 4 -6
v 5 4 -7
v 5 7 7
v 5 7 6
v 5 7 -6
v 5 7 -7
v 7 2 -6
v 7 2 -7
v 7 4 7
v 7 4 6
v 7 4 -6
v 7 5 7
v 7 5 6
v 7 5 -6
v 7 5 -7
v 8 10 8
v 8 10 6
v 8 11 8
v 8 11 6
v 9 3 6
v 9 3 -7
v 9 4 7
v 9 4 6
v 9 4 -6
v 9 4 -7
v 9 5 7
v 9 5 6
v 9 5 -6
v 9 5 -7
v 9 9 5
v 9 9 -5
v 9 10 -6
v 9 10 -8
v 9 11 -6
v 9 11 -8
v 9 13 5
v 9 13 -5
v 10 9 6
v 10 9 5
v 10 9 -5
v 10 9 -6
v 10 13 5
v 10 13 -5
v 10 14 6
v 10 14 -6
v 11 1 8
v 11 1 6
v 11 1 -6
v 11 1 -8
v 11 4 6
v 11 4 -6
v 11 6 8
v 11 6 6
v 11 6 -6
v 11 6 -8
v 16 6 6
v 16 6 1
v 16 6 -1
v 16 6 -6
v 16 8 6
v 16 8 1
v 16 8 -1
v 16 8 -6
v 17 3 2
v 17 3 -2
v 17 4 7
v 17 4 2
v 17 4 -2
v 17 4 -7
v 17 5 2
v 17 5 -2
v 17 6 6
v 17 6 1
v 17 6 -1
v 17 6 -6
v 17 8 6
v 17 8 1
v 17 8 -1
v 17 8 -6
v 17 9 7
v 17 9 -7
v -11 1 8
v -11 6 8
v -9 3 8
v -9 4 8
v -8 3 8
v -8 4 8
v -6 1 8
v -6 6 8
v 6 1 8
v 6 6 8
v 7 10 8
v 7 11 8
v 8 3 8
v 8 4 8
v 8 10 8
v 8 11 8
v 9 3 8
v 9 4 8
v 11 1 8
v 11 6 8
v -17 4 7
v -17 9 7
v -12 4 7
v -12 7 7
v -5 4 7
v -5 7 7
v -1 7 7
v -1 8 7
v 2 7 7
v 2 8 7
v 5 4 7
v 5 7 7
v 12 4 7
v 12 7 7
v 17 4 7
v 17 9 7
v -12 4 6
v -12 7 6
v -12 9 6
v -12 14 6
v -11 4 6
v -11 6 6
v -11 9 6
v -11 13 6
v -10 4 6
v -10 5 6
v -9 4 6
v -9 5 6
v -8 4 6
v -8 5 6
v -7 4 6
v -7 5 6
v -6 4 6
v -6 6 6
v -5 4 6
v -5 7 6
v -5 9 6
v -5 13 6
v -3 9 6
v -3 13 6
v 5 4 6
v 5 7 6
v 6 4 6
v 6 6 6
v 7 4 6
v 7 5 6
v 7 9 6
v 7 10 6
v 8 4 6
v 8 5 6
v 8 10 6
v 8 11 6
v 8 13 6
v 9 4 6
v 9 5 6
v 10 4 6
v 10 5 6
v 10 9 6
v 10 14 6
v 11 4 6
v 11 6 6
v 12 4 6
v 12 7 6
v -18 3 5
v -18 4 5
v -18 6 5
v -18 8 5
v -17 4 5
v -17 6 5
v -17 8 5
v -14 3 5
v -14 4 5
v -11 9 5
v -11 13 5
v -5 9 5
v -5 13 5
v -3 9 5
v -3 13 5
v 7 9 5
v 7 10 5
v 8 10 5
v 8 13 5
v 16 3 2
v 16 4 2
v 17 3 2
v 17 4 2
v 16 6 1
v 16 8 1
v 17 6 1
v 17 8 1
v -18 6 -3
v -18 8 -3
v -17 6 -3
v -17 8 -3
v -12 9 -5
v -12 13 -5
v -11 9 -5
v -11 13 -5
v 9 9 -5
v 9 13 -5
v 10 9 -5
v 10 13 -5
v -11 1 -6
v -11 4 -6
v -9 3 -6
v -9 4 -6
v -8 3 -6
v -8 4 -6
v -6 1 -6
v -6 4 -6
v 6 1 -6
v 6 4 -6
v 7 2 -6
v 7 4 -6
v 8 10 -6
v 8 11 -6
v 9 10 -6
v 9 11 -6
v 10 2 -6
v 10 4 -6
v 11 1 -6
v 11 4 -6
v 16 6 -6
v 16 8 -6
v 17 6 -6
v 17 8 -6
v 7 2 -7
v 7 5 -7
v 8 3 -7
v 8 4 -7
v 8 5 -7
v 9 3 -7
v 9 4 -7
v 9 5 -7
v 10 2 -7
v 10 5 -7
v -10 4 7
v -10 5 7
v -9 4 7
v -9 5 7
v -8 4 7
v -8 5 7
v -7 4 7
v -7 5 7
v 7 4 7
v 7 5 7
v 8 4 7
v 8 5 7
v 9 4 7
v 9 5 7
v 10 4 7
v 10 5 7
v -11 1 6
v -11 4 6
v -9 3 6
v -9 4 6
v -8 3 6
v -8 4 6
v -6 1 6
v -6 4 6
v 6 1 6
v 6 4 6
v 7 10 6
v 7 11 6
v 8 3 6
v 8 4 6
v 8 10 6
v 8 11 6
v 9 3 6
v 9 4 6
v 11 1 6
v 11 4 6
v 16 6 6
v 16 8 6
v 17 6 6
v 17 8 6
v -12 9 5
v -12 13 5
v -11 9 5
v -11 13 5
v 9 9 5
v 9 13 5
v 10 9 5
v 10 13 5
v -18 3 4
v -18 4 4
v -17 4 4
v -14 3 4
v -14 4 4
v -18 6 3
v -18 8 3
v -17 6 3
v -17 8 3
v 16 6 -1
v 16 8 -1
v 17 6 -1
v 17 8 -1
v 16 3 -2
v 16 4 -2
v 17 3 -2
v 17 4 -2
v -18 6 -5
v -18 8 -5
v -17 6 -5
v -17 8 -5
v -11 9 -5
v -11 13 -5
v -5 9 -5
v -5 13 -5
v -3 9 -5
v -3 13 -5
v 8 9 -5
v 8 10 -5
v 9 10 -5
v 9 13 -5
v -12 4 -6
v -12 7 -6
v -12 9 -6
v -12 14 -6
v -11 4 -6
v -11 6 -6
v -11 9 -6
v -11 13 -6
v -6 4 -6
v -6 6 -6
v -5 4 -6
v -5 7 -6
v -5 9 -6
v -5 13 -6
v -3 9 -6
v -3 13 -6
v 5 4 -6
v 5 7 -6
v 6 4 -6
v 6 6 -6
v 7 4 -6
v 7 5 -6
v 8 4 -6
v 8 5 -6
v 8 9 -6
v 8 10 -6
v 9 4 -6
v 9 5 -6
v 9 10 -6
v 9 11 -6
v 9 13 -6
v 10 4 -6
v 10 5 -6
v 10 9 -6
v 10 14 -6
v 11 4 -6
v 11 6 -6
v 12 4 -6
v 12 7 -6
v -17 4 -7
v -17 9 -7
v -12 4 -7
v -12 7 -7
v -5 4 -7
v -5 7 -7
v -1 7 -7
v -1 8 -7
v 2 7 -7
v 2 8 -7
v 5 4 -7
v 5 7 -7
v 12 4 -7
v 12 7 -7
v 17 4 -7
v 17 9 -7
v -11 1 -8
v -11 6 -8
v -9 3 -8
v -9 4 -8
v -8 3 -8
v -8 4 -8
v -6 1 -8
v -6 6 -8
v 6 1 -8
v 6 6 -8
v 8 3 -8
v 8 4 -8
v 8 10 -8
v 8 11 -8
v 9 3 -8
v 9 4 -8
v 9 10 -8
v 9 11 -8
v 11 1 -8
v 11 6 -8
v -11 1 8
v -6 1 8
v 6 1 8
v 11 1 8
v -11 1 6
v -6 1 6
v 6 1 6
v 11 1 6
v -11 1 -6
v -6 1 -6
v 6 1 -6
v 11 1 -6
v -11 1 -8
v -6 1 -8
v 6 1 -8
v 11 1 -8
v -9 3 6
v -8 3 6
v 8 3 6
v 9 3 6
v -18 3 5
v -14 3 5
v -18 3 4
v -14 3 4
v 16 3 2
v 17 3 2
v 16 3 -2
v 17 3 -2
v -9 3 -6
v -8 3 -6
v 8 3 -7
v 9 3 -7
v -17 4 7
v -12 4 7
v -5 4 7
v 5 4 7
v 12 4 7
v 17 4 7
v -12 4 6
v -11 4 6
v -9 4 6
v -8 4 6
v -6 4 6
v -5 4 6
v 5 4 6
v 6 4 6
v 8 4 6
v 9 4 6
v 11 4 6
v 12 4 6
v -17 4 5
v -14 4 5
v -17 4 4
v -14 4 4
v 16 4 2
v 17 4 2
v 16 4 -2
v 17 4 -2
v -12 4 -6
v -11 4 -6
v -9 4 -6
v -8 4 -6
v -6 4 -6
v -5 4 -6
v 5 4 -6
v 6 4 -6
v 7 4 -6
v 8 4 -6
v 9 4 -6
v 10 4 -6
v 11 4 -6
v 12 4 -6
v -17 4 -7
v -12 4 -7
v -5 4 -7
v 5 4 -7
v 12 4 -7
v 17 4 -7
v -10 5 7
v -9 5 7
v -8 5 7
v -7 5 7
v 7 5 7
v 8 5 7
v 9 5 7
v 10 5 7
v -10 5 6
v -9 5 6
v -8 5 6
v -7 5 6
v 7 5 6
v 8 5 6
v 9 5 6
v 10 5 6
v 7 5 -6
v 8 5 -6
v 9 5 -6
v 10 5 -6
v 7 5 -7
v 8 5 -7
v 9 5 -7
v 10 5 -7
v -18 6 5
v -17 6 5
v -18 6 3
v -17 6 3
v -18 6 -3
v -17 6 -3
v -18 6 -5
v -17 6 -5
v -12 7 7
v -5 7 7
v 5 7 7
v 12 7 7
v -12 7 6
v -5 7 6
v 5 7 6
v 12 7 6
v -12 7 -6
v -5 7 -6
v 5 7 -6
v 12 7 -6
v -12 7 -7
v -5 7 -7
v 5 7 -7
v 12 7 -7
v 16 8 6
v 17 8 6
v 16 8 1
v 17 8 1
v 16 8 -1
v 17 8 -1
v 16 8 -6
v 17 8 -6
v 7 10 8
v 8 10 8
v 7 10 6
v 8 10 6
v 8 10 -6
v 9 10 -6
v 8 10 -8
v 9 10 -8
v -11 13 6
v -5 13 6
v -3 13 6
v 8 13 6
v -12 13 5
v -11 13 5
v -5 13 5
v -3 13 5
v 8 13 5
v 9 13 5
v 10 13 5
v -12 13 -5
v -11 13 -5
v -5 13 -5
v -3 13 -5
v 9 13 -5
v 10 13 -5
v -11 13 -6
v -5 13 -6
v -3 13 -6
v 9 13 -6
v 7 2 -6
v 10 2 -6
v 7 2 -7
v 10 2 -7
v -10 4 7
v -9 4 7
v -8 4 7
v -7 4 7
v 7 4 7
v 8 4 7
v 9 4 7
v 10 4 7
v -10 4 6
v -9 4 6
v -8 4 6
v -7 4 6
v 7 4 6
v 8 4 6
v 9 4 6
v 10 4 6
v -18 4 5
v -17 4 5
v -18 4 4
v -17 4 4
v -11 6 8
v -6 6 8
v 6 6 8
v 11 6 8
v -11 6 6
v -6 6 6
v 6 6 6
v 11 6 6
v 16 6 6
v 17 6 6
v 16 6 1
v 17 6 1
v 16 6 -1
v 17 6 -1
v -11 6 -6
v -6 6 -6
v 6 6 -6
v 11 6 -6
v 16 6 -6
v 17 6 -6
v -11 6 -8
v -6 6 -8
v 6 6 -8
v 11 6 -8
v -18 8 5
v -17 8 5
v -18 8 3
v -17 8 3
v -18 8 -3
v -17 8 -3
v -18 8 -5
v -17 8 -5
v -17 9 7
v 17 9 7
v -12 9 6
v -11 9 6
v -5 9 6
v -3 9 6
v 7 9 6
v 10 9 6
v -12 9 5
v -11 9 5
v -5 9 5
v -3 9 5
v 7 9 5
v 9 9 5
v 10 9 5
v -12 9 -5
v -11 9 -5
v -5 9 -5
v -3 9 -5
v 8 9 -5
v 9 9 -5
v 10 9 -5
v -12 9 -6
v -11 9 -6
v -5 9 -6
v -3 9 -6
v 8 9 -6
v 10 9 -6
v -17 9 -7
v 17 9 -7
v 7 10 6
v 8 10 6
v 7 10 5
v 8 10 5
v 8 10 -5
v 9 10 -5
v 8 10 -6
v 9 10 -6
v 7 11 8
v 8 11 8
v 7 11 6
v 8 11 6
v 8 11 -6
v 9 11 -6
v 8 11 -8
v 9 11 -8
v -12 14 6
v 10 14 6
v -12 14 -6
v 10 14 -6

# faces
f 3/7/1 2/7/1 1/7/1
f 4/7/1 2/7/1 3/7/1
f 9/4/1 6/4/1 5/4/1
f 10/4/1 6/4/1 9/4/1
f 11/4/1 8/4/1 7/4/1
f 12/4/1 8/4/1 11/4/1
f 17/3/1 14/3/1 13/3/1
f 17/3/1 16/3/1 15/3/1
f 17/3/1 15/3/1 14/3/1
f 18/3/1 16/3/1 17/3/1
f 19/3/1 16/3/1 18/3/1
f 20/3/1 16/3/1 19/3/1
f 21/3/1 17/3/1 13/3/1
f 22/3/1 19/3/1 18/3/1
f 23/3/1 19/3/1 22/3/1
f 24/3/1 16/3/1 20/3/1
f 25/3/1 23/3/1 22/3/1
f 25/3/1 24/3/1 23/3/1
f 25/3/1 21/3/1 13/3/1
f 25/3/1 22/3/1 21/3/1
f 26/3/1 16/3/1 24/3/1
f 26/3/1 24/3/1 25/3/1
f 31/3/1 28/3/1 27/3/1
f 32/3/1 30/3/1 29/3/1
f 33/3/1 31/3/1 27/3/1
f 33/3/1 32/3/1 31/3/1
f 34/3/1 30/3/1 32/3/1
f 34/3/1 32/3/1 33/3/1
f 39/8/1 36/8/1 35/8/1
f 40/8/1 38/8/1 37/8/1
f 41/8/1 39/8/1 35/8/1
f 42/8/1 39/8/1 41/8/1
f 43/8/1 38/8/1 40/8/1
f 44/8/1 38/8/1 43/8/1
f 47/9/1 46/9/1 45/9/1
f 48/9/1 46/9/1 47/9/1
f 52/5/1 50/5/1 49/5/1
f 53/5/1 50/5/1 52/5/1
f 54/8/1 52/8/1 51/8/1
f 55/8/1 52/8/1 54/8/1
f 58/8/1 57/8/1 56/8/1
f 59/8/1 57/8/1 58/8/1
f 64/3/1 61/3/1 60/3/1
f 65/3/1 61/3/1 64/3/1
f 66/3/1 63/3/1 62/3/1
f 67/3/1 63/3/1 66/3/1
f 72/3/1 69/3/1 68/3/1
f 73/3/1 69/3/1 72/3/1
f 74/3/1 71/3/1 70/3/1
f 75/3/1 71/3/1 74/3/1
f 80/8/1 77/8/1 76/8/1
f 81/8/1 79/8/1 78/8/1
f 82/8/1 80/8/1 76/8/1
f 83/8/1 80/8/1 82/8/1
f 84/8/1 79/8/1 81/8/1
f 85/8/1 79/8/1 84/8/1
f 89/3/1 87/3/1 86/3/1
f 90/3/1 87/3/1 89/3/1
f 91/3/1 89/3/1 88/3/1
f 92/3/1 89/3/1 91/3/1
f 96/5/1 94/5/1 93/5/1
f 97/5/1 94/5/1 96/5/1
f 98/5/1 94/5/1 97/5/1
f 99/8/1 96/8/1 95/8/1
f 100/8/1 96/8/1 99/8/1
f 101/2/1 98/2/1 97/2/1
f 102/2/1 98/2/1 101/2/1
f 107/3/1 104/3/1 103/3/1
f 108/3/1 104/3/1 107/3/1
f 110/3/1 106/3/1 105/3/1
f 111/3/1 109/3/1 108/3/1
f 112/3/1 109/3/1 111/3/1
f 113/3/1 106/3/1 110/3/1
f 114/3/1 106/3/1 113/3/1
f 117/3/1 116/3/1 115/3/1
f 118/3/1 117/3/1 115/3/1
f 119/3/1 117/3/1 118/3/1
f 124/8/1 121/8/1 120/8/1
f 125/8/1 123/8/1 122/8/1
f 126/8/1 123/8/1 125/8/1
f 127/8/1 121/8/1 124/8/1
f 128/8/1 121/8/1 127/8/1
f 133/3/1 130/3/1 129/3/1
f 134/3/1 130/3/1 133/3/1
f 135/3/1 132/3/1 131/3/1
f 136/3/1 132/3/1 135/3/1
f 139/9/1 138/9/1 137/9/1
f 140/9/1 138/9/1 139/9/1
f 141/7/2 142/7/2 143/7/2
f 143/7/2 142/7/2 144/7/2
f 145/3/2 146/3/2 149/3/2
f 149/3/2 146/3/2 150/3/2
f 147/3/2 148/3/2 151/3/2
f 151/3/2 148/3/2 152/3/2
f 153/3/2 154/3/2 157/3/2
f 157/3/2 154/3/2 158/3/2
f 155/3/2 156/3/2 159/3/2
f 159/3/2 156/3/2 160/3/2
f 161/8/2 162/8/2 163/8/2
f 163/8/2 162/8/2 164/8/2
f 165/5/2 166/5/2 168/5/2
f 168/5/2 166/5/2 169/5/2
f 167/8/2 168/8/2 170/8/2
f 170/8/2 168/8/2 171/8/2
f 172/8/2 173/8/2 176/8/2
f 174/8/2 175/8/2 177/8/2
f 172/8/2 176/8/2 178/8/2
f 178/8/2 176/8/2 179/8/2
f 177/8/2 175/8/2 180/8/2
f 180/8/2 175/8/2 181/8/2
f 182/3/2 183/3/2 186/3/2
f 186/3/2 183/3/2 187/3/2
f 184/3/2 185/3/2 188/3/2
f 188/3/2 185/3/2 189/3/2
f 190/3/2 191/3/2 194/3/2
f 194/3/2 191/3/2 195/3/2
f 192/3/2 193/3/2 196/3/2
f 196/3/2 193/3/2 197/3/2
f 198/8/2 199/8/2 202/8/2
f 200/8/2 201/8/2 203/8/2
f 203/8/2 201/8/2 204/8/2
f 202/8/2 199/8/2 205/8/2
f 205/8/2 199/8/2 206/8/2
f 207/3/2 208/3/2 209/3/2
f 209/3/2 208/3/2 210/3/2
f 211/5/2 212/5/2 214/5/2
f 214/5/2 212/5/2 215/5/2
f 215/5/2 212/5/2 216/5/2
f 213/8/2 214/8/2 217/8/2
f 217/8/2 214/8/2 218/8/2
f 215/2/2 216/2/2 219/2/2
f 219/2/2 216/2/2 220/2/2
f 223/3/2 224/3/2 225/3/2
f 225/3/2 224/3/2 226/3/2
f 221/9/2 222/9/2 227/9/2
f 227/9/2 222/9/2 228/9/2
f 229/3/2 230/3/2 233/3/2
f 231/3/2 232/3/2 234/3/2
f 229/3/2 233/3/2 235/3/2
f 233/3/2 234/3/2 235/3/2
f 234/3/2 232/3/2 236/3/2
f 235/3/2 234/3/2 236/3/2
f 237/8/2 238/8/2 241/8/2
f 239/8/2 240/8/2 242/8/2
f 237/8/2 241/8/2 243/8/2
f 243/8/2 241/8/2 244/8/2
f 242/8/2 240/8/2 245/8/2
f 245/8/2 240/8/2 246/8/2
f 247/1/2 248/1/2 251/1/2
f 251/1/2 248/1/2 252/1/2
f 249/1/2 250/1/2 253/1/2
f 253/1/2 250/1/2 254/1/2
f 255/9/2 256/9/2 258/9/2
f 258/9/2 256/9/2 259/9/2
f 257/3/2 258/3/2 261/3/2
f 258/9/2 259/9/2 261/9/2
f 259/3/2 260/3/2 262/3/2
f 261/9/2 259/9/2 262/9/2
f 257/3/2 261/3/2 263/3/2
f 261/3/2 262/3/2 263/3/2
f 263/3/2 262/3/2 264/3/2
f 264/3/2 262/3/2 265/3/2
f 262/3/2 260/3/2 266/3/2
f 265/3/2 262/3/2 266/3/2
f 257/3/2 263/3/2 267/3/2
f 264/3/2 265/3/2 268/3/2
f 268/3/2 265/3/2 269/3/2
f 266/3/2 260/3/2 270/3/2
f 257/3/2 267/3/2 271/3/2
f 269/3/2 270/3/2 271/3/2
f 268/3/2 269/3/2 271/3/2
f 267/3/2 268/3/2 271/3/2
f 270/3/2 260/3/2 272/3/2
f 271/3/2 270/3/2 272/3/2
f 275/8/3 274/8/3 273/8/3
f 276/8/3 274/8/3 275/8/3
f 277/8/3 275/8/3 273/8/3
f 277/5/3 276/5/3 275/5/3
f 278/8/3 274/8/3 276/8/3
f 278/5/3 276/5/3 277/5/3
f 279/8/3 277/8/3 273/8/3
f 279/8/3 278/8/3 277/8/3
f 280/8/3 274/8/3 278/8/3
f 280/8/3 278/8/3 279/8/3
f 285/8/3 282/8/3 281/8/3
f 286/8/3 282/8/3 285/8/3
f 287/3/3 284/3/3 283/3/3
f 288/3/3 284/3/3 287/3/3
f 289/8/3 285/8/3 281/8/3
f 289/5/3 286/5/3 285/5/3
f 290/8/3 282/8/3 286/8/3
f 290/5/3 286/5/3 289/5/3
f 291/8/3 289/8/3 281/8/3
f 291/8/3 290/8/3 289/8/3
f 292/8/3 282/8/3 290/8/3
f 292/8/3 290/8/3 291/8/3
f 295/3/3 294/3/3 293/3/3
f 296/3/3 294/3/3 295/3/3
f 298/3/3 294/3/3 296/3/3
f 299/3/3 294/3/3 298/3/3
f 299/3/3 298/3/3 297/3/3
f 300/3/3 294/3/3 299/3/3
f 301/3/3 299/3/3 297/3/3
f 301/6/3 300/6/3 299/6/3
f 302/3/3 294/3/3 300/3/3
f 302/6/3 300/6/3 301/6/3
f 303/3/3 301/3/3 297/3/3
f 303/3/3 302/3/3 301/3/3
f 304/3/3 302/3/3 303/3/3
f 306/3/3 302/3/3 304/3/3
f 307/3/3 306/3/3 305/3/3
f 308/3/3 294/3/3 302/3/3
f 308/3/3 306/3/3 307/3/3
f 308/3/3 302/3/3 306/3/3
f 313/3/3 310/3/3 309/3/3
f 314/3/3 310/3/3 313/3/3
f 315/3/3 312/3/3 311/3/3
f 316/3/3 312/3/3 315/3/3
f 319/3/3 318/3/3 317/3/3
f 320/3/3 318/3/3 319/3/3
f 323/3/3 322/3/3 321/3/3
f 324/3/3 322/3/3 323/3/3
f 326/3/3 310/3/3 314/3/3
f 327/3/3 326/3/3 325/3/3
f 328/3/3 310/3/3 326/3/3
f 328/3/3 326/3/3 327/3/3
f 330/3/3 312/3/3 316/3/3
f 331/3/3 330/3/3 329/3/3
f 332/3/3 312/3/3 330/3/3
f 332/3/3 330/3/3 331/3/3
f 335/3/3 334/3/3 333/3/3
f 336/3/3 334/3/3 335/3/3
f 341/3/3 338/3/3 337/3/3
f 342/3/3 338/3/3 341/3/3
f 343/3/3 340/3/3 339/3/3
f 345/3/3 312/3/3 332/3/3
f 348/3/3 347/3/3 346/3/3
f 349/3/3 347/3/3 348/3/3
f 350/3/3 344/3/3 343/3/3
f 350/3/3 345/3/3 344/3/3
f 350/3/3 343/3/3 339/3/3
f 351/3/3 312/3/3 345/3/3
f 351/3/3 345/3/3 350/3/3
f 353/3/3 334/3/3 336/3/3
f 354/3/3 353/3/3 352/3/3
f 355/3/3 334/3/3 353/3/3
f 355/3/3 353/3/3 354/3/3
f 360/7/3 357/7/3 356/7/3
f 361/4/3 359/4/3 358/4/3
f 362/4/3 359/4/3 361/4/3
f 363/7/3 360/7/3 356/7/3
f 364/7/3 360/7/3 363/7/3
f 367/9/3 366/9/3 365/9/3
f 368/9/3 366/9/3 367/9/3
f 371/9/3 370/9/3 369/9/3
f 372/9/3 370/9/3 371/9/3
f 373/9/3 370/9/3 372/9/3
f 374/9/3 370/9/3 373/9/3
f 377/9/3 376/9/3 375/9/3
f 378/9/3 376/9/3 377/9/3
f 381/3/3 380/3/3 379/3/3
f 382/3/3 380/3/3 381/3/3
f 385/4/3 384/4/3 383/4/3
f 386/4/3 384/4/3 385/4/3
f 389/3/3 388/3/3 387/3/3
f 390/3/3 388/3/3 389/3/3
f 393/3/3 392/3/3 391/3/3
f 394/3/3 392/3/3 393/3/3
f 397/8/3 396/8/3 395/8/3
f 398/8/3 396/8/3 397/8/3
f 399/8/3 397/8/3 395/8/3
f 401/8/3 399/8/3 395/8/3
f 401/8/3 400/8/3 399/8/3
f 402/8/3 400/8/3 401/8/3
f 405/8/3 404/8/3 403/8/3
f 406/8/3 404/8/3 405/8/3
f 409/3/3 408/3/3 407/3/3
f 410/3/3 408/3/3 409/3/3
f 411/8/3 405/8/3 403/8/3
f 413/8/3 411/8/3 403/8/3
f 413/8/3 412/8/3 411/8/3
f 414/8/3 412/8/3 413/8/3
f 417/3/3 416/3/3 415/3/3
f 418/3/3 416/3/3 417/3/3
f 421/8/3 420/8/3 419/8/3
f 422/8/3 420/8/3 421/8/3
f 423/8/3 420/8/3 422/8/3
f 424/8/3 421/8/3 419/8/3
f 427/8/3 424/8/3 419/8/3
f 427/8/3 426/8/3 425/8/3
f 427/8/3 425/8/3 424/8/3
f 428/8/3 426/8/3 427/8/3
f 429/8/4 430/8/4 431/8/4
f 431/8/4 430/8/4 432/8/4
f 433/8/4 434/8/4 435/8/4
f 435/8/4 434/8/4 436/8/4
f 437/8/4 438/8/4 439/8/4
f 439/8/4 438/8/4 440/8/4
f 441/8/4 442/8/4 443/8/4
f 443/8/4 442/8/4 444/8/4
f 445/8/4 446/8/4 447/8/4
f 447/8/4 446/8/4 448/8/4
f 445/8/4 447/8/4 449/8/4
f 445/8/4 449/8/4 451/8/4
f 449/8/4 450/8/4 451/8/4
f 451/8/4 450/8/4 452/8/4
f 453/8/4 454/8/4 457/8/4
f 457/8/4 454/8/4 458/8/4
f 455/3/4 456/3/4 459/3/4
f 459/3/4 456/3/4 460/3/4
f 453/8/4 457/8/4 461/8/4
f 453/8/4 461/8/4 463/8/4
f 461/8/4 462/8/4 463/8/4
f 463/8/4 462/8/4 464/8/4
f 465/3/4 466/3/4 467/3/4
f 467/3/4 466/3/4 468/3/4
f 469/3/4 470/3/4 471/3/4
f 471/3/4 470/3/4 472/3/4
f 473/3/4 474/3/4 475/3/4
f 475/3/4 474/3/4 476/3/4
f 477/7/4 478/7/4 479/7/4
f 477/7/4 479/7/4 480/7/4
f 480/7/4 479/7/4 481/7/4
f 482/4/4 483/4/4 484/4/4
f 484/4/4 483/4/4 485/4/4
f 486/3/4 487/3/4 488/3/4
f 488/3/4 487/3/4 489/3/4
f 490/9/4 491/9/4 492/9/4
f 492/9/4 491/9/4 493/9/4
f 494/4/4 495/4/4 496/4/4
f 496/4/4 495/4/4 497/4/4
f 498/9/4 499/9/4 500/9/4
f 500/9/4 499/9/4 501/9/4
f 502/9/4 503/9/4 504/9/4
f 504/9/4 503/9/4 505/9/4
f 505/9/4 503/9/4 506/9/4
f 506/9/4 503/9/4 507/9/4
f 508/3/4 509/3/4 512/3/4
f 512/3/4 509/3/4 513/3/4
f 510/3/4 511/3/4 514/3/4
f 514/3/4 511/3/4 515/3/4
f 513/3/4 509/3/4 517/3/4
f 516/3/4 517/3/4 518/3/4
f 517/3/4 509/3/4 519/3/4
f 518/3/4 517/3/4 519/3/4
f 515/3/4 511/3/4 521/3/4
f 520/3/4 521/3/4 522/3/4
f 521/3/4 511/3/4 523/3/4
f 522/3/4 521/3/4 523/3/4
f 524/3/4 525/3/4 526/3/4
f 526/3/4 525/3/4 527/3/4
f 528/3/4 529/3/4 530/3/4
f 530/3/4 529/3/4 531/3/4
f 532/3/4 533/3/4 536/3/4
f 523/3/4 511/3/4 538/3/4
f 534/3/4 535/3/4 539/3/4
f 539/3/4 535/3/4 540/3/4
f 536/3/4 537/3/4 541/3/4
f 537/3/4 538/3/4 541/3/4
f 532/3/4 536/3/4 541/3/4
f 538/3/4 511/3/4 542/3/4
f 541/3/4 538/3/4 542/3/4
f 527/3/4 525/3/4 544/3/4
f 543/3/4 544/3/4 545/3/4
f 544/3/4 525/3/4 546/3/4
f 545/3/4 544/3/4 546/3/4
f 547/3/4 548/3/4 549/3/4
f 549/3/4 548/3/4 550/3/4
f 550/3/4 548/3/4 552/3/4
f 552/3/4 548/3/4 553/3/4
f 551/3/4 552/3/4 553/3/4
f 553/3/4 548/3/4 554/3/4
f 551/3/4 553/3/4 555/3/4
f 553/6/4 554/6/4 555/6/4
f 554/3/4 548/3/4 556/3/4
f 555/6/4 554/6/4 556/6/4
f 551/3/4 555/3/4 557/3/4
f 555/3/4 556/3/4 557/3/4
f 557/3/4 556/3/4 558/3/4
f 558/3/4 556/3/4 560/3/4
f 559/3/4 560/3/4 561/3/4
f 556/3/4 548/3/4 562/3/4
f 561/3/4 560/3/4 562/3/4
f 560/3/4 556/3/4 562/3/4
f 563/8/4 564/8/4 565/8/4
f 565/8/4 564/8/4 566/8/4
f 563/8/4 565/8/4 567/8/4
f 565/5/4 566/5/4 567/5/4
f 566/8/4 564/8/4 568/8/4
f 567/5/4 566/5/4 568/5/4
f 563/8/4 567/8/4 569/8/4
f 567/8/4 568/8/4 569/8/4
f 568/8/4 564/8/4 570/8/4
f 569/8/4 568/8/4 570/8/4
f 571/8/4 572/8/4 573/8/4
f 573/8/4 572/8/4 574/8/4
f 571/8/4 573/8/4 577/8/4
f 573/5/4 574/5/4 577/5/4
f 574/8/4 572/8/4 578/8/4
f 577/5/4 574/5/4 578/5/4
f 575/3/4 576/3/4 579/3/4
f 579/3/4 576/3/4 580/3/4
f 571/8/4 577/8/4 581/8/4
f 577/8/4 578/8/4 581/8/4
f 578/8/4 572/8/4 582/8/4
f 581/8/4 578/8/4 582/8/4
f 587/8/5 584/8/5 583/8/5
f 588/8/5 584/8/5 587/8/5
f 589/8/5 586/8/5 585/8/5
f 590/8/5 586/8/5 589/8/5
f 595/8/5 592/8/5 591/8/5
f 596/8/5 592/8/5 595/8/5
f 597/8/5 594/8/5 593/8/5
f 598/8/5 594/8/5 597/8/5
f 605/7/5 604/7/5 603/7/5
f 606/7/5 604/7/5 605/7/5
f 609/9/5 608/9/5 607/9/5
f 610/9/5 608/9/5 609/9/5
f 611/5/5 600/5/5 599/5/5
f 612/5/5 600/5/5 611/5/5
f 613/5/5 602/5/5 601/5/5
f 614/5/5 602/5/5 613/5/5
f 621/3/5 616/3/5 615/3/5
f 626/3/5 618/3/5 617/3/5
f 627/3/5 618/3/5 626/3/5
f 632/3/5 620/3/5 619/3/5
f 633/3/5 621/3/5 615/3/5
f 633/3/5 622/3/5 621/3/5
f 633/3/5 623/3/5 622/3/5
f 634/3/5 623/3/5 633/3/5
f 636/3/5 623/3/5 634/3/5
f 637/3/5 631/3/5 630/3/5
f 637/3/5 632/3/5 631/3/5
f 637/3/5 620/3/5 632/3/5
f 638/3/5 620/3/5 637/3/5
f 639/3/5 637/3/5 630/3/5
f 641/3/5 636/3/5 635/3/5
f 641/3/5 623/3/5 636/3/5
f 642/3/5 623/3/5 641/3/5
f 643/3/5 623/3/5 642/3/5
f 644/3/5 625/3/5 624/3/5
f 644/3/5 626/3/5 625/3/5
f 644/3/5 627/3/5 626/3/5
f 644/3/5 628/3/5 627/3/5
f 644/3/5 629/3/5 628/3/5
f 645/3/5 629/3/5 644/3/5
f 646/3/5 629/3/5 645/3/5
f 647/3/5 629/3/5 646/3/5
f 648/3/5 629/3/5 647/3/5
f 649/3/5 629/3/5 648/3/5
f 650/3/5 629/3/5 649/3/5
f 651/3/5 640/3/5 639/3/5
f 651/3/5 639/3/5 630/3/5
f 652/3/5 640/3/5 651/3/5
f 653/3/5 640/3/5 652/3/5
f 654/3/5 640/3/5 653/3/5
f 655/3/5 641/3/5 635/3/5
f 656/3/5 641/3/5 655/3/5
f 657/3/5 647/3/5 646/3/5
f 658/3/5 647/3/5 657/3/5
f 659/3/5 640/3/5 654/3/5
f 660/3/5 640/3/5 659/3/5
f 669/8/5 662/8/5 661/8/5
f 670/8/5 662/8/5 669/8/5
f 671/8/5 664/8/5 663/8/5
f 672/8/5 664/8/5 671/8/5
f 673/8/5 666/8/5 665/8/5
f 674/8/5 666/8/5 673/8/5
f 675/8/5 668/8/5 667/8/5
f 676/8/5 668/8/5 675/8/5
f 681/8/5 678/8/5 677/8/5
f 682/8/5 678/8/5 681/8/5
f 683/8/5 680/8/5 679/8/5
f 684/8/5 680/8/5 683/8/5
f 687/4/5 686/4/5 685/4/5
f 688/4/5 686/4/5 687/4/5
f 691/4/5 690/4/5 689/4/5
f 692/4/5 690/4/5 691/4/5
f 697/3/5 694/3/5 693/3/5
f 698/3/5 694/3/5 697/3/5
f 699/3/5 696/3/5 695/3/5
f 700/3/5 696/3/5 699/3/5
f 705/3/5 702/3/5 701/3/5
f 706/3/5 702/3/5 705/3/5
f 707/3/5 704/3/5 703/3/5
f 708/3/5 704/3/5 707/3/5
f 711/3/5 710/3/5 709/3/5
f 712/3/5 710/3/5 711/3/5
f 715/3/5 714/3/5 713/3/5
f 716/3/5 714/3/5 715/3/5
f 719/3/5 718/3/5 717/3/5
f 720/3/5 718/3/5 719/3/5
f 723/3/5 722/3/5 721/3/5
f 724/3/5 722/3/5 723/3/5
f 730/3/5 726/3/5 725/3/5
f 731/3/5 726/3/5 730/3/5
f 732/3/5 728/3/5 727/3/5
f 733/3/5 728/3/5 732/3/5
f 736/3/5 730/3/5 729/3/5
f 737/3/5 730/3/5 736/3/5
f 740/3/5 735/3/5 734/3/5
f 741/3/5 735/3/5 740/3/5
f 742/3/5 738/3/5 737/3/5
f 743/3/5 738/3/5 742/3/5
f 744/3/5 740/3/5 739/3/5
f 745/3/5 740/3/5 744/3/5
f 746/8/6 747/8/6 748/8/6
f 748/8/6 747/8/6 749/8/6
f 750/8/6 751/8/6 758/8/6
f 758/8/6 751/8/6 759/8/6
f 752/8/6 753/8/6 760/8/6
f 760/8/6 753/8/6 761/8/6
f 754/8/6 755/8/6 762/8/6
f 762/8/6 755/8/6 763/8/6
f 756/8/6 757/8/6 764/8/6
f 764/8/6 757/8/6 765/8/6
f 766/7/6 767/7/6 768/7/6
f 768/7/6 767/7/6 769/7/6
f 770/8/6 771/8/6 774/8/6
f 774/8/6 771/8/6 775/8/6
f 772/8/6 773/8/6 776/8/6
f 776/8/6 773/8/6 777/8/6
f 778/3/6 779/3/6 780/3/6
f 780/3/6 779/3/6 781/3/6
f 782/3/6 783/3/6 788/3/6
f 788/3/6 783/3/6 789/3/6
f 784/8/6 785/8/6 790/8/6
f 790/8/6 785/8/6 791/8/6
f 786/8/6 787/8/6 792/8/6
f 792/8/6 787/8/6 793/8/6
f 794/4/6 795/4/6 796/4/6
f 796/4/6 795/4/6 797/4/6
f 798/4/6 799/4/6 800/4/6
f 800/4/6 799/4/6 801/4/6
f 802/3/6 803/3/6 804/3/6
f 804/3/6 803/3/6 805/3/6
f 805/3/6 803/3/6 806/3/6
f 806/3/6 803/3/6 807/3/6
f 807/3/6 803/3/6 808/3/6
f 808/3/6 803/3/6 809/3/6
f 802/3/6 804/3/6 810/3/6
f 805/3/6 806/3/6 811/3/6
f 811/3/6 806/3/6 812/3/6
f 807/3/6 808/3/6 813/3/6
f 813/3/6 808/3/6 814/3/6
f 809/3/6 803/3/6 816/3/6
f 802/3/6 810/3/6 817/3/6
f 810/3/6 811/3/6 817/3/6
f 817/3/6 811/3/6 818/3/6
f 815/3/6 816/3/6 822/3/6
f 816/3/6 803/3/6 823/3/6
f 822/3/6 816/3/6 823/3/6
f 802/3/6 817/3/6 824/3/6
f 818/3/6 819/3/6 825/3/6
f 825/3/6 819/3/6 826/3/6
f 820/3/6 821/3/6 827/3/6
f 827/3/6 821/3/6 828/3/6
f 823/3/6 803/3/6 829/3/6
f 825/3/6 826/3/6 830/3/6
f 828/3/6 829/3/6 830/3/6
f 827/3/6 828/3/6 830/3/6
f 802/3/6 824/3/6 830/3/6
f 826/3/6 827/3/6 830/3/6
f 824/3/6 825/3/6 830/3/6
f 829/3/6 803/3/6 831/3/6
f 830/3/6 829/3/6 831/3/6
f 832/3/6 833/3/6 834/3/6
f 834/3/6 833/3/6 835/3/6
f 836/3/6 837/3/6 838/3/6
f 838/3/6 837/3/6 839/3/6
f 840/3/6 841/3/6 842/3/6
f 842/3/6 841/3/6 843/3/6
f 844/3/6 845/3/6 846/3/6
f 846/3/6 845/3/6 847/3/6
f 848/3/6 849/3/6 850/3/6
f 850/3/6 849/3/6 851/3/6
